<?xml version="1.0" standalone="no"?>
<!DOCTYPE svg PUBLIC "-//W3C//DTD SVG 1.1//EN" "http://www.w3.org/Graphics/SVG/1.1/DTD/svg11.dtd" >
<svg xmlns="http://www.w3.org/2000/svg" xmlns:xlink="http://www.w3.org/1999/xlink" version="1.1">
<metadata>
Created by FontForge 20200427 at Sat Aug 22 09:30:33 2015
 By www
Meatball (c) Copyright, 2012. Parkinson Type Design.
</metadata>
<defs>
<font id="MeatballW00-Regular" horiz-adv-x="610" >
  <font-face 
    font-family="MeatballW00-Regular"
    font-weight="400"
    font-stretch="normal"
    units-per-em="1000"
    panose-1="2 0 0 0 0 0 0 0 0 0"
    ascent="800"
    descent="-200"
    x-height="426"
    cap-height="682"
    bbox="-57 -263 1737 902"
    underline-thickness="50"
    underline-position="-125"
    unicode-range="U+0020-FB02"
  />
<missing-glyph horiz-adv-x="500" 
d="M63 0v800h375v-800h-375zM125 63h250v675h-250v-675z" />
    <glyph glyph-name=".notdef" horiz-adv-x="500" 
d="M63 0v800h375v-800h-375zM125 63h250v675h-250v-675z" />
    <glyph glyph-name=".null" horiz-adv-x="0" 
 />
    <glyph glyph-name="nonmarkingreturn" horiz-adv-x="333" 
 />
    <glyph glyph-name="space" unicode=" " horiz-adv-x="210" 
 />
    <glyph glyph-name="exclam" unicode="!" horiz-adv-x="410" 
d="M355 639q0 -33 -10 -98t-27 -129q-28 -112 -51.5 -146t-61.5 -34q-22 0 -39 10.5t-32 41.5t-41 126q-17 60 -27.5 130t-10.5 98q0 18 10 28t43 16t98 6q52 0 83 -4t48.5 -13t17.5 -32zM325 79q0 -27 -17 -46.5t-47 -32t-63 -12.5q-54 0 -82 22t-28 57q0 41 41.5 66.5
t84.5 25.5q49 0 80 -23t31 -57z" />
    <glyph glyph-name="quotedbl" unicode="&#x22;" horiz-adv-x="425" 
d="M375 667q0 -5 -0.5 -21t-13.5 -146q-3 -37 -8 -78.5t-7 -49.5q-2 -6 -12.5 -10t-27.5 -4q-21 0 -31 4t-11 10q0 3 -6.5 51.5t-9.5 80.5q-1 10 -6 56t-7 69.5t-2 34.5q0 24 72 24q29 0 49.5 -3.5t20.5 -17.5zM192 667q0 -5 -0.5 -21t-13.5 -146q-3 -37 -8 -78.5t-7 -49.5
q-2 -6 -12.5 -10t-27.5 -4q-21 0 -30.5 4t-10.5 10q0 3 -7 51.5t-10 80.5q-1 14 -8 75t-7 85t72 24q29 0 49.5 -3.5t20.5 -17.5z" />
    <glyph glyph-name="numbersign" unicode="#" horiz-adv-x="627" 
d="M597 459q0 -30 -10 -43t-36 -13h-77l-18 -120h72q17 0 25.5 -12t8.5 -31q0 -30 -10 -42.5t-36 -12.5h-75l-18 -120q-3 -19 -13.5 -31t-48.5 -12q-46 0 -46 28l2 20l17 115h-89l-18 -120q-3 -19 -13.5 -31t-48.5 -12q-46 0 -46 28l2 20l17 115h-74q-34 0 -34 33
q0 27 11.5 46t34.5 19h77l18 120h-73q-16 0 -25 13.5t-9 31.5q0 55 45 55h77l17 113q4 24 20.5 37t41.5 13q47 0 47 -34l-1 -10l-18 -119h89l17 113q4 24 20.5 37t41.5 13q47 0 47 -34l-1 -10l-18 -119h73q17 0 26 -12.5t9 -31.5zM349 283l18 120h-89l-18 -120h89z" />
    <glyph glyph-name="dollar" unicode="$" horiz-adv-x="591" 
d="M531 200q0 -58 -40.5 -99.5t-112.5 -61.5l1 -56q0 -41 -33 -41q-17 0 -30 6.5t-14 31.5l-1 44q-45 -5 -87 -5q-77 0 -116 9q-38 9 -38 57q0 21 8 31.5t21 10.5q4 0 27 -3.5t38 -3.5q31 0 55 7t34 21t10 29q0 24 -14.5 47t-65.5 62q-48 38 -66 74.5t-18 75.5q0 50 26 92.5
t72.5 69t96.5 38.5l-4 87q0 15 7 26t35 11q14 0 25 -7t13 -32l3 -73l34 1q22 0 52 -3.5t43 -7.5q16 -5 27 -15t11 -32q0 -21 -5.5 -37.5t-26.5 -16.5l-65 4q-41 0 -64 -15.5t-23 -46.5q0 -14 7 -27t19.5 -24t32 -25t25.5 -18q59 -43 80 -88.5t21 -96.5z" />
    <glyph glyph-name="percent" unicode="%" horiz-adv-x="1206" 
d="M1156 168q0 -53 -34.5 -91.5t-99 -61t-150.5 -22.5q-81 0 -137.5 19t-86.5 52.5t-30 81.5q0 44 22.5 77.5t61.5 55.5t89.5 32.5t105.5 10.5q81 0 138 -17.5t89 -51.5t32 -85zM925 631q0 -10 -17 -29l-271 -301l-270 -325q-15 -15 -27 -15q-5 0 -18.5 7.5t-30.5 20.5
q-8 7 -13 16t-5 15q0 14 16 32l286 332l254 296q13 13 27 13q4 0 16.5 -6t35.5 -24q17 -13 17 -32zM587 533q0 -53 -34.5 -91.5t-98.5 -61t-150 -22.5q-81 0 -137.5 19t-86.5 52.5t-30 81.5q0 44 22.5 77.5t61.5 55.5t89.5 32.5t105.5 10.5q81 0 138 -17.5t88.5 -51.5
t31.5 -85zM945 158q0 109 -57 109q-25 0 -42 -30.5t-17 -82.5q0 -49 12 -78.5t44 -29.5q16 0 31 15.5t22 42.5t7 54zM377 523q0 109 -57 109q-25 0 -42 -30.5t-17 -82.5q0 -49 12 -78.5t44 -29.5q16 0 31 15.5t22 42.5t7 54z" />
    <glyph glyph-name="ampersand" unicode="&#x26;" horiz-adv-x="941" 
d="M921 386q0 -19 -6.5 -28t-22.5 -9l-37 2q-18 -70 -83 -144q21 -18 58 -55q34 -34 74 -82q10 -12 10 -20q0 -17 -31 -35q-77 -46 -96 -55t-37.5 -14t-31.5 -5q-28 0 -49 23q-10 11 -44 48t-44 47q-77 -43 -135 -56t-131 -13q-295 0 -295 191q0 43 26 80.5t74 68t114 54.5
q-65 62 -65 129q0 36 20.5 66.5t57.5 52t87.5 33t108.5 11.5q107 0 170.5 -35.5t63.5 -94.5q0 -68 -124 -130q100 -89 117.5 -105.5t36.5 -36.5q23 50 22 79l-39 -2q-26 0 -26 33q0 19 7.5 28.5t17.5 10.5q47 4 106 4q49 0 97 -3q13 -1 21 -7t8 -31zM546 547q0 22 -20.5 38
t-60.5 16q-33 0 -50.5 -12.5t-17.5 -30.5q0 -42 86 -90q63 32 63 79zM529 123q-35 35 -106.5 100t-112.5 99q-33 -20 -46 -44t-13 -69q0 -23 11 -51t45.5 -46.5t90.5 -18.5q30 0 59 5.5t72 24.5z" />
    <glyph glyph-name="quotesingle" unicode="'" horiz-adv-x="242" 
d="M192 667q0 -5 -0.5 -21t-13.5 -146q-3 -37 -8 -78.5t-7 -49.5q-2 -6 -12.5 -10t-27.5 -4q-21 0 -30.5 4t-10.5 10q0 3 -7 51.5t-10 80.5q-1 14 -8 75t-7 85t72 24q29 0 49.5 -3.5t20.5 -17.5z" />
    <glyph glyph-name="parenleft" unicode="(" horiz-adv-x="503" 
d="M473 -153q0 -8 -15 -25q-16 -18 -23 -18q-9 0 -27 8q-92 36 -164 92.5t-112 113.5t-61 120t-21 132q0 70 22 134t58.5 114.5t81 89t98.5 71t111 52.5l14 4q7 0 25 -20q13 -15 13 -25q0 -3 -9 -14q-82 -89 -120.5 -192.5t-38.5 -213.5t39 -215t120 -192q9 -11 9 -16z" />
    <glyph glyph-name="parenright" unicode=")" horiz-adv-x="503" 
d="M453 270q0 -69 -21 -132t-61 -120t-112 -113.5t-164 -92.5q-18 -8 -27 -8q-7 0 -23 18q-15 17 -15 25q0 5 9 16q81 87 120 192t39 215t-38.5 213.5t-120.5 192.5q-9 11 -9 14q0 10 13 25q18 20 25 20l14 -4q57 -20 111 -52.5t98.5 -71t81 -89t58.5 -114.5t22 -134z" />
    <glyph glyph-name="asterisk" unicode="*" horiz-adv-x="446" 
d="M397 531q-2 -3 -23.5 -7.5t-48.5 -9t-29 -4.5q54 -67 58 -73.5t4 -8.5q0 -4 -9.5 -15t-27.5 -24q-12 -9 -25 -15.5t-18 -5.5q-2 1 -8 9t-16 25.5t-19 35t-10 18.5q-45 -73 -49.5 -79.5t-6.5 -7.5q-3 -2 -16.5 4.5t-32.5 19.5q-12 9 -22.5 20.5t-10.5 16.5q0 4 19 27.5
t44 50.5q-5 1 -38 7t-47 9t-15 4q-4 4 -3 22.5t5 33.5q3 15 12 32t14 18q2 0 17 -5t49 -18.5t36 -14.5q-11 83 -11.5 93t0.5 12q3 4 17 7.5t37 3.5q14 0 31.5 -3.5t21.5 -7.5q2 -3 0 -25.5t-6 -50t-4 -29.5q25 10 62 22t41 11q5 -2 12.5 -16.5t10.5 -28.5q10 -47 5 -53z" />
    <glyph glyph-name="plus" unicode="+" horiz-adv-x="596" 
d="M536 279q0 -22 -11 -37.5t-30 -16.5l-149 -7l-3 -154q-1 -21 -17 -32t-42 -11q-20 0 -35.5 8.5t-15.5 26.5l2 155l-137 -8q-18 0 -28 15t-10 34q0 27 10 43.5t30 17.5l136 9l1 135q0 19 15.5 31.5t36.5 12.5q61 0 61 -36l-2 -135l149 8q15 0 27 -12.5t12 -46.5z" />
    <glyph glyph-name="comma" unicode="," horiz-adv-x="350" 
d="M300 74q0 -51 -21.5 -95t-54.5 -75q-47 -45 -74 -45q-5 0 -12.5 4.5t-12.5 11.5q-10 13 -10 23q0 11 10 18q29 17 44 35q9 13 9 19q0 17 -32 17q-25 0 -49.5 13t-35.5 32.5t-11 37.5t13.5 41t47.5 40t74 17q51 0 83 -25t32 -69z" />
    <glyph glyph-name="hyphen" unicode="-" horiz-adv-x="447" 
d="M387 255q0 -22 -11 -37.5t-30 -16.5l-69 -5l-179 -11q-18 0 -28 15t-10 34q0 27 10 43.5t30 17.5l177 15q51 4 71 4q15 0 27 -12.5t12 -46.5z" />
    <glyph glyph-name="period" unicode="." horiz-adv-x="350" 
d="M300 84q0 -28 -18 -49t-50 -34.5t-66 -13.5q-57 0 -86.5 23.5t-29.5 60.5q0 43 44 70t89 27q25 0 52.5 -8t46 -29t18.5 -47z" />
    <glyph glyph-name="slash" unicode="/" horiz-adv-x="442" 
d="M422 693q0 -7 -7 -26l-148 -379l-124 -331q-9 -23 -26 -23q-6 0 -29 7t-38 13q-30 11 -30 29q0 11 7 27l130 339l141 376q2 5 6 13t16 8q1 0 9 -2t35.5 -12t30.5 -11q11 -3 19 -10.5t8 -17.5z" />
    <glyph glyph-name="zero" unicode="0" horiz-adv-x="721" 
d="M697 355q0 -84 -26 -152.5t-74.5 -115.5t-115 -71.5t-145.5 -24.5q-68 0 -125.5 21t-99 63.5t-64.5 107t-23 147.5q0 77 27 142.5t75.5 112t114.5 71.5t140 25q64 0 121.5 -20.5t101 -61t68.5 -103t25 -141.5zM444 351q0 53 -5 105t-22 88t-52 36q-90 0 -90 -238
q0 -56 4.5 -111t20.5 -94.5t53 -40.5q16 0 33.5 10t30 36t20 70t7.5 139z" />
    <glyph glyph-name="one" unicode="1" horiz-adv-x="449" 
d="M389 632q0 -72 -8.5 -310t-8.5 -243q0 -29 -15.5 -50t-37.5 -26q-62 -15 -118 -15q-29 0 -44 15.5t-15 51.5q0 334 -3 453q-15 -4 -47.5 -17t-40.5 -13t-17 8t-16 25.5t-7 31.5q0 15 7 28t38 26q207 89 284 89q20 0 34.5 -14.5t14.5 -39.5z" />
    <glyph glyph-name="two" unicode="2" horiz-adv-x="601" 
d="M574 91q0 -37 -11.5 -57.5t-34.5 -21.5q-360 -15 -476 -15q-13 0 -22.5 6.5t-9.5 33.5q0 6 5.5 20t19.5 30q12 14 63.5 69.5t86.5 98t55 79.5t27 64t7 46q0 43 -20.5 63.5t-64.5 20.5q-19 0 -43.5 -8.5t-58.5 -35.5t-42 -27q-6 0 -11.5 4.5t-10.5 10.5t-5 7
q-16 19 -16 33q0 11 19 35q48 65 122 100t170 35q69 0 119 -25.5t77.5 -71.5t27.5 -114q0 -22 -5.5 -49.5t-20.5 -60t-41 -73t-139 -177.5q36 2 76 6t79.5 12.5t45.5 8.5q32 0 32 -47z" />
    <glyph glyph-name="three" unicode="3" horiz-adv-x="598" 
d="M574 203q0 -48 -20 -88t-57 -68t-88.5 -43t-111.5 -15q-85 0 -148.5 11.5t-111.5 39.5q-27 15 -27 31q0 17 12 44q15 33 31 33q5 0 19 -7q59 -28 119 -28q54 0 92 26.5t38 76.5q0 34 -13 55t-36 31.5t-53 10.5h-32q-16 0 -20.5 13t-4.5 37q0 45 20 45l39 -1q31 0 54 21.5
t23 52.5q0 33 -21 49t-69 16q-66 0 -122 -39q-8 -4 -11 -4q-16 0 -33.5 23.5t-17.5 43.5q0 16 9 23q62 51 121 70.5t152 19.5q46 0 81.5 -9.5t64 -25.5t51 -46t22.5 -72q0 -53 -24 -87.5t-76 -55.5l-7 -5q2 -4 7 -5q31 -6 67 -25.5t59 -58.5t23 -90z" />
    <glyph glyph-name="four" unicode="4" horiz-adv-x="659" 
d="M644 226q0 -9 -1.5 -28t-4.5 -27q-7 -23 -28 -26q-24 -3 -64 -5l-1 -66q-1 -30 -13.5 -49.5t-41.5 -25.5q-70 -17 -110 -17q-33 0 -46.5 14.5t-14.5 55.5l-3 76l-191 -7q-110 0 -110 104q0 33 15.5 74.5t44.5 90t80 111.5t96 101q87 73 127 77q22 2 67 4.5t65 2.5
q49 0 49 -53q0 -14 -5 -164.5t-6 -217.5l74 5q22 0 22 -30zM314 222l-4 301q-64 -66 -100 -131.5t-36 -121.5q0 -24 9.5 -37.5t57.5 -13.5z" />
    <glyph glyph-name="five" unicode="5" horiz-adv-x="588" 
d="M568 236q0 -57 -26 -103.5t-72.5 -78.5t-108.5 -49t-131 -17q-45 0 -89 7t-96 26q-15 6 -24 19.5t-9 43.5q0 24 8.5 35t28.5 11q4 0 50 -12.5t77 -12.5q75 0 110.5 22t35.5 69q0 78 -109 78q-33 0 -81.5 -12t-65.5 -12q-12 0 -23.5 9.5t-11.5 25.5q0 12 5 27
q29 99 48 182q24 102 32 146q3 18 10 28.5t24 10.5q12 0 75.5 -4t114.5 -4q44 0 84.5 3t72 8.5t32.5 5.5q13 0 18 -8t5 -21q0 -18 -4.5 -48.5t-9.5 -50.5q-7 -30 -43 -43.5t-145 -13.5q-79 0 -157 12l-20 -88q23 7 57 13t59 6q279 0 279 -210z" />
    <glyph glyph-name="six" unicode="6" horiz-adv-x="693" 
d="M673 261q0 -60 -26 -110t-71 -85t-104.5 -53.5t-123.5 -18.5q-77 0 -137.5 21.5t-100.5 62.5t-60 99.5t-20 130.5q0 102 44.5 187t143 138t233.5 53q16 0 26 -4t14 -26l1 -20q0 -8 -6 -13.5t-18 -6.5q-76 -5 -121.5 -45t-55.5 -115q66 35 148 35q51 0 99.5 -15t80 -50.5
t43 -78t11.5 -86.5zM445 244q0 82 -17.5 124t-65.5 42q-40 0 -75 -21q-6 -75 -6 -135q0 -107 17.5 -151.5t61.5 -44.5q41 0 63 52t22 134z" />
    <glyph glyph-name="seven" unicode="7" horiz-adv-x="576" 
d="M564 641q0 -13 -10 -33t-20 -34q-61 -90 -82 -127t-41 -87t-37.5 -126.5t-31.5 -194.5q-2 -13 -11 -23t-40 -15q-21 -3 -79 -6t-93 -3q-36 0 -36 33q0 59 23 153t73.5 210t95.5 184l-225 -8q-36 0 -36 32q0 41 9 53q13 17 33 17q92 0 465 14q22 0 32.5 -9t10.5 -30z" />
    <glyph glyph-name="eight" unicode="8" horiz-adv-x="675" 
d="M651 221q0 -29 -8.5 -62t-32 -63t-63 -53.5t-99.5 -36.5t-128 -13q-147 0 -221.5 41t-74.5 117q0 44 20.5 77.5t50 54.5t57.5 37q-52 32 -71.5 51.5t-28 44t-8.5 55.5q0 62 34.5 108t100.5 74.5t157 28.5q140 0 207.5 -39t67.5 -107q0 -33 -17 -60t-89 -71
q45 -22 77.5 -50t50.5 -61t18 -73zM489 526q0 70 -125 70q-51 0 -80.5 -14.5t-29.5 -35.5q0 -16 10.5 -29t50 -29.5t110.5 -39.5q28 12 46 33.5t18 44.5zM422 158q0 36 -45 63.5t-161 62.5q-28 -21 -46 -48t-18 -54q0 -94 131 -94q68 0 103.5 15t35.5 55z" />
    <glyph glyph-name="nine" unicode="9" horiz-adv-x="693" 
d="M663 372q0 -102 -44.5 -187t-143 -138t-233.5 -53q-16 0 -26 4t-14 26l-1 20q0 8 6 13.5t18 6.5q76 5 121.5 45t55.5 115q-66 -35 -148 -35q-51 0 -99.5 15t-80 50.5t-43 78t-11.5 86.5q0 60 26 110t71 85t104.5 53.5t123.5 18.5q77 0 137.5 -21.5t100.5 -62.5t60 -99.5
t20 -130.5zM412 426q0 108 -17.5 152t-61.5 44q-41 0 -63 -52t-22 -134t17.5 -124t65.5 -42q41 0 75 21q6 75 6 135z" />
    <glyph glyph-name="colon" unicode=":" horiz-adv-x="350" 
d="M300 336q0 -28 -18 -49t-50 -34.5t-66 -13.5q-57 0 -86.5 23.5t-29.5 60.5q0 43 44 70t89 27q25 0 52.5 -8t46 -29t18.5 -47zM300 84q0 -28 -18 -49t-50 -34.5t-66 -13.5q-57 0 -86.5 23.5t-29.5 60.5q0 43 44 70t89 27q25 0 52.5 -8t46 -29t18.5 -47z" />
    <glyph glyph-name="semicolon" unicode=";" horiz-adv-x="350" 
d="M300 336q0 -28 -18 -49t-50 -34.5t-66 -13.5q-57 0 -86.5 23.5t-29.5 60.5q0 43 44 70t89 27q25 0 52.5 -8t46 -29t18.5 -47zM300 74q0 -51 -21.5 -95t-54.5 -75q-47 -45 -74 -45q-5 0 -12.5 4.5t-12.5 11.5q-10 13 -10 23q0 11 10 18q29 17 44 35q9 13 9 19q0 17 -32 17
q-25 0 -49.5 13t-35.5 32.5t-11 37.5t13.5 41t47.5 40t74 17q51 0 83 -25t32 -69z" />
    <glyph glyph-name="less" unicode="&#x3c;" horiz-adv-x="554" 
d="M494 121q0 -12 -7 -31q-8 -20 -17.5 -33t-21.5 -13l-18 3q-4 1 -176 80l-161 72q-18 7 -25.5 22.5t-7.5 42.5q0 32 7 46.5t25 21.5l161 72q172 79 176 80q8 3 15 3q11 0 20 -6.5t22 -38.5q7 -19 7 -29q0 -23 -27 -36q-16 -7 -82 -35t-92 -37q-12 -3 -92 -39l94 -40
l173 -72q27 -11 27 -33z" />
    <glyph glyph-name="equal" unicode="=" horiz-adv-x="596" 
d="M536 379q0 -22 -11 -37.5t-30 -16.5l-218 -12l-179 -10q-18 0 -28 15t-10 34q0 27 10 43.5t30 17.5l177 10l220 15q15 0 27 -12.5t12 -46.5zM536 181q0 -22 -11 -37.5t-30 -16.5l-218 -12l-179 -10q-18 0 -28 15t-10 34q0 27 10 43.5t30 17.5l177 11q30 2 120.5 8t99.5 6
q15 0 27 -12.5t12 -46.5z" />
    <glyph glyph-name="greater" unicode="&#x3e;" horiz-adv-x="554" 
d="M494 281q0 -20 -5.5 -38t-27.5 -27l-161 -72q-172 -79 -176 -80l-18 -3q-9 0 -18 9t-21 37q-7 19 -7 31q0 22 27 33l173 72l94 40q-80 36 -92 39q-20 7 -83 33.5t-91 38.5q-27 13 -27 36q0 10 7 29q8 20 16 32.5t26 12.5q8 0 15 -3q4 -1 176 -80l161 -72q14 -6 23 -17.5
t9 -50.5z" />
    <glyph glyph-name="question" unicode="?" 
d="M555 513q0 -58 -28 -103t-83 -77t-137 -44l5 -38q3 -26 -63 -26q-20 0 -32.5 4t-13.5 17l-5 78q-1 12 4.5 19t24.5 12q48 13 76 45t28 84q0 48 -26.5 72.5t-69.5 24.5q-27 0 -51.5 -11.5t-50 -34.5t-31.5 -23q-14 0 -30.5 16t-16.5 34q0 10 19 31q82 91 215 91
q88 0 146.5 -20.5t89 -57.5t30.5 -93zM370 79q0 -22 -14 -43t-46.5 -34.5t-65.5 -13.5q-54 0 -82 22t-28 57q0 41 41.5 66.5t84.5 25.5q49 0 79.5 -23t30.5 -57z" />
    <glyph glyph-name="at" unicode="@" horiz-adv-x="1103" 
d="M1038 397q0 -74 -27.5 -127.5t-74.5 -84.5t-107 -44.5t-128 -13.5q-20 0 -42 12.5t-29 27.5q-60 -39 -134 -39q-88 0 -136 46.5t-48 135.5q0 34 13 68.5t44 63t79 47t110 18.5q42 0 79.5 -7.5t59.5 -21.5q18 12 44 21.5t49 9.5q35 0 35 -40q0 -9 -2.5 -99.5t-2.5 -143.5
q52 17 81 57.5t29 109.5q0 51 -19.5 92t-60.5 69.5t-105.5 44t-150.5 15.5q-84 0 -158 -22.5t-128 -65t-84 -103t-30 -132.5q0 -51 18.5 -97.5t60 -79t101 -49t135.5 -16.5q30 0 64 5.5t72.5 17t44.5 11.5q9 0 18 -12t9 -40q0 -36 -22 -45q-79 -33 -193 -33q-97 0 -178 21.5
t-138.5 64.5t-89 108.5t-31.5 150.5q0 41 13 94t49 106t90.5 94.5t123.5 69t138.5 37.5t123.5 10q98 0 179 -21t138 -61t87.5 -98.5t30.5 -131.5zM616 220l-2 212q-10 4 -26 4q-65 0 -65 -109q0 -121 56 -121q19 0 37 14z" />
    <glyph glyph-name="A" unicode="A" horiz-adv-x="684" 
d="M674 43q0 -17 -5 -27t-37 -17q-36 -7 -84 -13t-79 -6q-33 0 -48.5 10t-20.5 36q-2 9 -10 57t-13 65q-35 0 -109 -4t-102 -9q-12 -37 -19 -115q-3 -34 -37 -34q-13 0 -38 2t-37 4q-25 5 -25 36q0 39 80 298q50 160 100 286q8 20 19.5 35t35.5 18q36 4 104 7.5t93 3.5
q48 0 72 -58q57 -139 80 -224q80 -296 80 -351zM356 255q-12 55 -40 141t-44 121q-17 -43 -41 -121t-40 -151q18 3 73.5 6t91.5 4z" />
    <glyph glyph-name="B" unicode="B" horiz-adv-x="737" 
d="M713 206q0 -48 -27 -88.5t-78 -69.5t-125.5 -45t-164.5 -16q-73 0 -147 3t-88 6q-19 4 -29.5 13t-10.5 40l-3 518q0 48 18 65.5t51 26.5q30 9 105.5 16t141.5 7q161 0 238 -36t77 -121q0 -52 -36.5 -90t-114.5 -57q14 -1 45 -8t57.5 -21.5t44.5 -32t32 -45t14 -65.5z
M425 510q0 79 -66 79q-16 0 -32 -4l-8 -186q56 4 81 29.5t25 81.5zM432 201q0 42 -12.5 67t-38 35t-63.5 8l-9 -227q68 1 95.5 30t27.5 87z" />
    <glyph glyph-name="C" unicode="C" horiz-adv-x="626" 
d="M611 82q0 -37 -23 -49q-18 -9 -49 -18.5t-75 -15t-87 -5.5q-77 0 -142 21t-112.5 61.5t-73 102t-25.5 138.5q0 47 11.5 97.5t43.5 98t84.5 85.5t130 59t161.5 21q78 0 115 -15q12 -5 20 -14.5t8 -34.5q0 -23 -13 -39t-30 -16q-7 0 -28.5 5t-45.5 5q-79 0 -124.5 -61
t-45.5 -169q0 -229 162 -229q21 0 55.5 11t41.5 11q41 0 41 -50z" />
    <glyph glyph-name="D" unicode="D" horiz-adv-x="772" 
d="M748 346q0 -80 -31.5 -146t-91 -112.5t-144.5 -71.5t-188 -25q-50 0 -119 3.5t-86 6.5q-19 3 -30 12t-11 42q0 113 -3.5 289.5t-3.5 222.5q0 47 12 63.5t58 29.5q30 9 111 14.5t157 5.5q84 0 153 -20t117 -61.5t74 -105t26 -147.5zM467 344q0 73 -9.5 126.5t-33.5 83
t-73 29.5q-9 0 -25 -4q-4 -215 -14 -488q37 0 65.5 14t48.5 43.5t30.5 78.5t10.5 117z" />
    <glyph glyph-name="E" unicode="E" horiz-adv-x="587" 
d="M575 67q0 -30 -11 -44t-40 -18t-149 -7.5t-274 -3.5q-28 0 -40.5 14t-13.5 49l-7 539q0 41 14 56.5t52 16.5l421 9q16 1 24 -12.5t8 -40.5q0 -26 -9 -41t-26 -15l-199 2l-2 -144q54 0 123 7t75 7q30 0 30 -55t-37 -58q-144 -6 -195 -6l-8 -219q63 0 147 8.5t85 8.5
q32 0 32 -53z" />
    <glyph glyph-name="F" unicode="F" horiz-adv-x="589" 
d="M574 381q0 -28 -10 -46.5t-28 -19.5q-126 -6 -217 -6l-8 -223q-1 -36 -8.5 -55t-51.5 -25q-105 -15 -153 -15q-27 0 -39.5 14t-13.5 49l-5 541q0 41 14 56.5t51 16.5l415 13q15 0 22.5 -10.5t7.5 -35.5q0 -56 -35 -61q-16 -2 -80 -4.5t-108 -2.5l-5 -155q40 0 126 7.5
t95 7.5q31 0 31 -46z" />
    <glyph glyph-name="G" unicode="G" horiz-adv-x="743" 
d="M703 334q0 -29 -3 -112.5t-4 -103.5q-1 -21 -12.5 -40t-31.5 -28q-41 -20 -118 -38t-135 -18q-187 0 -281 84t-94 256q0 63 21.5 119t59 97.5t86 71t112 49t134.5 19.5q38 0 66.5 -2t61.5 -11t33 -52q0 -22 -12 -38.5t-27 -16.5q-8 0 -35.5 5t-57.5 5q-38 0 -75.5 -29
t-58.5 -86t-21 -121q0 -114 36.5 -170t107.5 -62l-4 207q-1 25 10.5 36t47.5 15q97 10 145 10q49 0 49 -46z" />
    <glyph glyph-name="H" unicode="H" horiz-adv-x="760" 
d="M720 611q0 -29 -8.5 -262.5t-9.5 -282.5q0 -20 -8 -34.5t-39 -19.5q-29 -5 -89 -11.5t-81 -6.5q-31 0 -42.5 17t-11.5 43l4 213q-24 -1 -67.5 -4.5t-56.5 -6.5q-1 -10 -1 -94t-2 -117q-2 -28 -18 -37t-39 -12q-21 -2 -77.5 -5.5t-86.5 -3.5q-20 0 -30 13t-11 43l-6 550
q0 37 16 51t42 16q117 10 164 10q24 0 39 -9t15 -50l-3 -242l122 9q1 28 -1.5 106t-2.5 108q0 26 9.5 46t48.5 25q133 16 180 16q20 0 35.5 -15t15.5 -53z" />
    <glyph glyph-name="I" unicode="I" horiz-adv-x="369" 
d="M329 614q0 -29 -8.5 -269t-9.5 -289q0 -20 -8 -34.5t-39 -19.5q-29 -5 -86.5 -11t-78.5 -6q-31 0 -42.5 17t-11.5 43q0 107 -2.5 322.5t-2.5 226.5q0 35 13 51.5t44 20.5q133 16 181 16q20 0 35.5 -15t15.5 -53z" />
    <glyph glyph-name="J" unicode="J" horiz-adv-x="490" 
d="M450 610q0 -78 -10 -362q-8 -265 -300 -265q-55 0 -94 11q-38 10 -38 53q0 49 37 49q47 0 73.5 10.5t40.5 41.5t14 101t-5.5 200.5t-5.5 144.5q0 35 13 51.5t44 20.5q37 4 96 8.5t83 4.5q29 0 40.5 -15t11.5 -54z" />
    <glyph glyph-name="K" unicode="K" horiz-adv-x="741" 
d="M729 35q0 -19 -22 -28q-10 -5 -105.5 -14t-113.5 -9q-31 0 -31 34q0 74 -6 108.5t-22.5 55.5t-47 28t-67.5 5l-3 -135q-1 -37 -13 -53t-44 -20q-123 -16 -159 -16q-22 0 -34.5 11.5t-12.5 32.5l-8 558q0 40 14 55t46 21q24 4 83 9t95 5q26 0 38.5 -16.5t11.5 -55.5
l-10 -297q62 10 105 43t62 94.5t19 182.5q0 21 7 33t31 12q13 0 69.5 -3t63.5 -5q13 -4 19.5 -19t6.5 -49q0 -78 -20.5 -139t-60 -104.5t-99.5 -68.5q40 -3 77.5 -21.5t67 -51t46.5 -79.5t17 -104z" />
    <glyph glyph-name="L" unicode="L" horiz-adv-x="561" 
d="M553 75q0 -35 -12.5 -51.5t-41.5 -18.5q-63 -5 -201 -10t-206 -5q-29 0 -38 14t-9 39l-5 550q0 29 15.5 49.5t37.5 22.5q11 1 62 6.5t76.5 7.5t37.5 2q31 0 45.5 -12t14.5 -47q0 -11 -7.5 -231t-8.5 -293q34 1 74 5.5t84.5 12t48.5 7.5q20 0 26.5 -12.5t6.5 -35.5z" />
    <glyph glyph-name="M" unicode="M" horiz-adv-x="841" 
d="M801 615q0 -45 -8.5 -299t-8.5 -266q0 -16 -6.5 -28t-28.5 -15q-18 -3 -86 -7t-108 -4q-15 0 -23.5 11t-8.5 27l-4 306l-114 -220q-20 -39 -44 -39h-10q-8 0 -18.5 4.5t-29.5 33.5l-136 218q3 -102 12.5 -195.5t9.5 -104.5q0 -14 -8 -25t-20 -13q-35 -7 -78 -7
q-18 0 -27.5 9.5t-10.5 34.5q-2 33 -2.5 92.5t0 133t0.5 95.5q0 57 -1.5 133t-1.5 114q0 28 8.5 44t45.5 22q19 3 61.5 6t61.5 3q20 0 35.5 -6.5t35.5 -41.5l132 -232l113 224q14 28 28 36t44 11q19 2 73 5t75 3q28 0 38 -12.5t10 -50.5z" />
    <glyph glyph-name="N" unicode="N" horiz-adv-x="664" 
d="M624 638q0 -73 -5 -278.5t-10 -304.5q-1 -17 -7.5 -28.5t-29.5 -17.5q-20 -5 -57.5 -11t-58.5 -6q-8 0 -18.5 4.5t-34.5 34.5l-239 310q4 -87 12.5 -194t8.5 -110q0 -15 -8 -25.5t-20 -12.5q-35 -7 -73 -7q-18 0 -26.5 9.5t-8.5 34.5q0 7 -4.5 254.5t-4.5 311.5
q0 18 4 32.5t14.5 21.5t33.5 12q19 4 53 9t50 5q12 0 23 -3t20 -11.5t29 -32.5l225 -266q1 62 0.5 114.5t-2.5 95.5t-2 48q0 19 9 29t21 13q9 2 36.5 4t40.5 2q29 0 29 -37z" />
    <glyph glyph-name="O" unicode="O" horiz-adv-x="789" 
d="M765 366q0 -84 -29.5 -154t-83.5 -119.5t-127 -75.5t-156 -26q-71 0 -134.5 21.5t-110.5 64t-73.5 105t-26.5 139.5q0 57 18 110t50 95.5t84 79.5t117.5 54.5t123.5 17.5q32 0 74 -6.5t86.5 -25t87.5 -53.5t71.5 -94.5t28.5 -132.5zM484 349q0 104 -18 165.5t-66 61.5
q-96 0 -96 -237q0 -127 19 -186t64 -59q17 0 35.5 10.5t31.5 36t21.5 68t8.5 140.5z" />
    <glyph glyph-name="P" unicode="P" horiz-adv-x="723" 
d="M703 467q0 -118 -101 -189t-286 -84l-7 -161q-2 -32 -42 -37q-38 -5 -100 -9.5t-84 -4.5q-40 0 -40 47l-3 576q0 18 7 30.5t45 22.5q33 8 122.5 14t154.5 6q74 0 135 -11.5t105.5 -37t69 -66.5t24.5 -96zM436 450q0 46 -10 77.5t-33 46t-73 12.5l-4 -295q40 7 65.5 22
t40 46.5t14.5 90.5z" />
    <glyph glyph-name="Q" unicode="Q" horiz-adv-x="789" 
d="M765 353q0 -48 -15.5 -100.5t-54 -103.5t-86.5 -86l112 -41q12 -4 21 -16.5t9 -28.5q0 -36 -31 -67.5t-55 -31.5q-13 0 -25 10l-146 121q-64 -17 -126 -17q-75 0 -138.5 21.5t-109.5 65t-71 110t-25 151.5q0 54 19 104.5t53 91t87 75t118 51t120 16.5q69 0 131 -20
t110 -61t75.5 -103t27.5 -141zM484 347q0 104 -17 167t-64 63q-36 0 -57.5 -28t-31.5 -81t-10 -125q0 -125 19 -186.5t64 -61.5q33 0 53.5 23t32 78t11.5 151z" />
    <glyph glyph-name="R" unicode="R" horiz-adv-x="744" 
d="M729 39q0 -6 -2.5 -18.5t-20.5 -18.5q-11 -4 -96.5 -12.5t-101.5 -8.5q-30 0 -30 34q0 81 -15.5 122t-51 59t-98.5 15l-3 -131q-1 -36 -12.5 -50.5t-43.5 -20.5q-31 -5 -82 -10.5t-77 -5.5q-22 0 -35 11.5t-13 31.5l-7 548q0 34 12 51t47 26q34 9 117 16.5t154 7.5
q123 0 200 -24t115.5 -66.5t38.5 -105.5q0 -77 -50 -123t-152 -71q30 -3 64 -16.5t61.5 -38.5t45 -54.5t27 -67t9.5 -79.5zM446 472q0 64 -23 92t-61 28q-16 0 -34 -4l-11 -276q49 4 74.5 18t40 47.5t14.5 94.5z" />
    <glyph glyph-name="S" unicode="S" horiz-adv-x="549" 
d="M535 197q0 -36 -17 -72.5t-58 -66t-109.5 -48.5t-165.5 -19q-87 0 -129 9q-20 5 -31 19.5t-11 44.5q0 44 33 46q4 0 33.5 -4.5t45.5 -4.5q101 0 101 70q0 22 -11.5 38t-26 28.5t-37 28t-28.5 19.5q-97 68 -97 166q0 30 11 64.5t39 65t72.5 54.5t105 37.5t117.5 13.5
q24 0 56.5 -3.5t48.5 -8.5q18 -6 30 -17t12 -35q0 -32 -7.5 -45t-27.5 -14l-68 4q-93 0 -93 -69q0 -20 15 -41.5t71 -63.5q48 -35 64 -51t29 -34t23 -45t10 -66z" />
    <glyph glyph-name="T" unicode="T" horiz-adv-x="650" 
d="M638 621q0 -25 -7 -41t-32 -17l-131 -6l-18 -492q-2 -56 -49 -61q-119 -14 -167 -14t-48 57q0 1 -1 137t-1 204v106v56q-4 0 -61.5 -3.5t-74.5 -3.5q-19 0 -27.5 13.5t-8.5 44.5q0 26 6 39.5t32 14.5q15 1 97.5 3t119.5 3.5t48 2.5q61 4 162 7.5t124 3.5q16 0 26.5 -8
t10.5 -46z" />
    <glyph glyph-name="U" unicode="U" horiz-adv-x="735" 
d="M695 613q0 -21 -1 -70.5t-6.5 -189.5t-6.5 -182q-1 -54 -10.5 -78t-54.5 -45q-74 -35 -133 -46t-121 -11q-78 0 -137 18t-97.5 50.5t-59 77t-23.5 97.5q-2 32 -6 176t-4 180q0 30 11 50t43 25q98 16 174 16q56 0 54 -66q-11 -370 -11 -386q0 -61 18.5 -91.5t62.5 -30.5
q31 0 55 15l-9 471q0 33 15 48.5t53 22.5q30 6 73.5 12t69.5 6q23 0 37 -13.5t14 -55.5z" />
    <glyph glyph-name="V" unicode="V" horiz-adv-x="677" 
d="M667 640q0 -36 -23.5 -131t-54.5 -190q-44 -132 -110 -274q-12 -26 -23.5 -38t-28.5 -15q-22 -4 -81 -8t-99 -4q-15 0 -30 10.5t-30 46.5q-58 128 -92 235q-31 97 -58 205t-27 149q0 13 7 22t38 16q33 7 89.5 13.5t85.5 6.5q30 0 43.5 -9t16.5 -35q24 -186 49.5 -301.5
t53.5 -192.5q44 106 82 245t48 254q2 17 12 25.5t23 8.5q9 0 40 -2.5t44 -5.5q12 -3 18.5 -9t6.5 -22z" />
    <glyph glyph-name="W" unicode="W" horiz-adv-x="1064" 
d="M1054 640q0 -37 -23 -132t-54 -189q-44 -132 -110 -274q-9 -19 -20.5 -34t-32.5 -19q-22 -4 -81.5 -8t-99.5 -4q-15 0 -29.5 10.5t-29.5 46.5q-25 53 -49 114l-46 -106q-12 -26 -23.5 -38t-28.5 -15q-22 -4 -81 -8t-99 -4q-15 0 -30 10.5t-30 46.5q-58 128 -92 235
q-28 88 -56.5 206.5t-28.5 147.5q0 13 7 22t38 16q33 7 89.5 13.5t85.5 6.5q30 0 43.5 -9t16.5 -35q24 -186 49.5 -301.5t53.5 -192.5q51 124 69 188q-23 78 -44 173t-21 119q0 13 6.5 22t37.5 16q33 7 89.5 13.5t85.5 6.5q30 0 44 -9t17 -35q23 -185 49 -300.5t54 -192.5
q44 106 78.5 238.5t50.5 259.5q2 15 12 24.5t23 9.5q9 0 40 -2.5t44 -5.5t19.5 -9t6.5 -22z" />
    <glyph glyph-name="X" unicode="X" horiz-adv-x="672" 
d="M660 46q0 -11 -11 -21.5t-35 -15.5q-132 -25 -179 -25q-23 0 -41 7.5t-29 34.5q-56 134 -92 181q-28 -31 -54 -77.5t-39 -83.5q-19 -57 -52 -57q-7 0 -46 6.5t-45 8.5q-25 6 -25 31q0 21 24.5 71.5t69.5 115.5t91 105q-28 28 -68 81t-75 117.5t-35 100.5q0 11 8.5 20.5
t36.5 15.5q37 7 95 12.5t96 5.5q23 0 42.5 -7.5t27.5 -34.5q12 -40 35 -86.5t49 -79.5q25 28 52.5 73.5t39.5 80.5q9 26 21 44t32 18q18 0 42.5 -3.5t39.5 -8.5q10 -3 17 -11.5t7 -21.5q0 -28 -30.5 -85t-72 -108.5t-73.5 -82.5q40 -41 83.5 -113t68 -128.5t24.5 -79.5z" />
    <glyph glyph-name="Y" unicode="Y" horiz-adv-x="700" 
d="M690 644q0 -36 -72 -177q-12 -23 -32 -56t-55.5 -83.5t-39.5 -56.5l-7 -213q-2 -56 -50 -62q-35 -4 -88 -8t-79 -4q-49 0 -49 58l-1 229q-110 139 -186 295q-9 17 -15 36.5t-6 29.5q0 12 9.5 21t39.5 13q40 5 102 9.5t94 4.5q23 0 40 -7.5t25 -34.5q41 -144 101 -247
q35 50 68 112.5t53 124.5q9 26 17.5 42t26.5 16q11 0 41.5 -6t40.5 -10q11 -4 16.5 -9.5t5.5 -16.5z" />
    <glyph glyph-name="Z" unicode="Z" horiz-adv-x="637" 
d="M625 73q0 -31 -9 -48.5t-22 -18.5q-80 -4 -266.5 -9t-239.5 -5q-39 0 -57.5 15t-18.5 36q0 9 4 22t26 58l222 437l-198 -6q-37 0 -37 54q0 58 42 58q17 0 222.5 7t241.5 7q65 0 65 -47q0 -23 -24 -69l-238 -457q30 0 128.5 8.5t118.5 8.5t30 -12t10 -39z" />
    <glyph glyph-name="bracketleft" unicode="[" horiz-adv-x="534" 
d="M494 -137q0 -21 -10.5 -33.5t-30.5 -13.5l-294 -12l-25 -1q-19 0 -28 8t-9 27q0 157 -8.5 477.5t-8.5 360.5q0 18 8 31.5t35 14.5l330 16q16 0 27.5 -7t11.5 -37q0 -38 -41 -41l-111 -4l-7 -753l122 5q22 0 30.5 -7.5t8.5 -30.5z" />
    <glyph glyph-name="backslash" unicode="\" horiz-adv-x="442" 
d="M422 -17q0 -18 -30 -29q-9 -4 -34 -12t-33 -8q-17 0 -26 23l-124 331l-148 379q-7 19 -7 26q0 5 5 14t22 14q4 1 36 13t39 12q3 0 9.5 -2t12.5 -19l141 -376l130 -339q7 -16 7 -27z" />
    <glyph glyph-name="bracketright" unicode="]" horiz-adv-x="537" 
d="M457 689q0 -92 -6 -431.5t-6 -392.5q0 -18 -8 -31.5t-35 -14.5l-321 -16q-16 0 -27.5 7t-11.5 37q0 18 10.5 29t30.5 12l121 5l-3 738l-122 -5q-22 0 -30.5 7.5t-8.5 30.5q0 21 10.5 33.5t30.5 13.5l314 12l25 1q19 0 28 -8t9 -27z" />
    <glyph glyph-name="asciicircum" unicode="^" horiz-adv-x="616" 
d="M561 216q0 -6 -7 -9.5t-17 -3.5h-66q-23 0 -36 27l-87 211l-40 92l-40 -94l-87 -209q-5 -12 -14.5 -19.5t-21.5 -7.5h-67q-23 0 -23 12l4 16q3 8 49 111t61 137l72 161q7 18 22.5 25.5t42.5 7.5q32 0 46.5 -7t21.5 -25l72 -161q98 -215 106 -238q0 -1 1.5 -4l4.5 -9
t3 -13z" />
    <glyph glyph-name="underscore" unicode="_" horiz-adv-x="650" 
d="M652 -108v-56h-654v56h654z" />
    <glyph glyph-name="grave" unicode="`" horiz-adv-x="638" 
d="M446 542q0 -11 -6 -23q-9 -15 -19 -15q-11 0 -118 31q-78 23 -88 28q-23 10 -23 28q0 16 8 40q4 14 12.5 29t18.5 15q5 0 15 -4t44 -22.5t50 -27.5q90 -50 96 -55q10 -7 10 -24z" />
    <glyph glyph-name="a" unicode="a" horiz-adv-x="641" 
d="M606 388q0 -10 -3 -140.5t-3 -190.5q0 -22 -8 -37t-43 -23q-69 -16 -104 -16q-44 0 -55 44q-32 -16 -62.5 -25t-77.5 -9q-48 0 -90.5 13.5t-73.5 40t-48.5 65.5t-17.5 88q0 39 17 80t55.5 74.5t97.5 55.5t130 22q94 0 148 -32q19 13 47.5 24.5t51.5 11.5q16 0 27.5 -8
t11.5 -38zM373 95l-2 256q-12 5 -31 5q-41 0 -58.5 -32.5t-17.5 -96.5q0 -144 65 -144q28 0 44 12z" />
    <glyph glyph-name="b" unicode="b" horiz-adv-x="651" 
d="M631 226q0 -110 -89 -173.5t-256 -63.5q-101 0 -183 12q-21 3 -34.5 9.5t-19.5 22.5t-6 35l-5 529q0 29 9.5 50.5t50.5 35.5q86 28 135 28q22 0 35 -15t13 -60q0 -117 -4 -229q37 14 67 18.5t64 4.5q39 0 78.5 -12.5t72.5 -38t52.5 -65t19.5 -88.5zM382 199q0 71 -15 103
t-56 32q-13 0 -35 -8l-7 -259q37 0 61 10.5t38 37.5t14 84z" />
    <glyph glyph-name="c" unicode="c" horiz-adv-x="508" 
d="M488 71q0 -16 -7 -29.5t-16 -17.5q-61 -30 -173 -30q-50 0 -98.5 11.5t-88 36t-62.5 63t-23 88.5q0 73 37 124.5t112.5 81t189.5 29.5q3 0 12 -0.5t27.5 -2.5t22.5 -2q20 -2 33 -10t13 -37q0 -18 -8.5 -27t-20.5 -9l-47 4q-61 0 -91 -31.5t-30 -98.5q0 -57 33 -89.5
t79 -32.5q25 0 50 7t30 7q26 2 26 -35z" />
    <glyph glyph-name="d" unicode="d" horiz-adv-x="654" 
d="M615 635l-8 -578q0 -22 -9 -37.5t-44 -22.5q-5 -1 -41 -8.5t-62 -7.5q-22 0 -35.5 11t-17.5 29q-34 -16 -59 -23t-66 -7q-51 0 -96.5 12t-81 37t-55.5 64t-20 90q0 60 25.5 105.5t68.5 74.5t96 42.5t108 13.5l57 -1l-2 172q0 38 14 55.5t49 27.5q89 26 135 26
q44 0 44 -75zM378 95l-2 252l-26 1q-44 0 -62.5 -30t-18.5 -111q0 -124 67 -124q24 0 42 12z" />
    <glyph glyph-name="e" unicode="e" horiz-adv-x="580" 
d="M568 299q0 -44 -35.5 -77.5t-98 -55t-151.5 -30.5q6 -26 29.5 -39.5t56.5 -13.5t74.5 11.5t50.5 11.5q10 0 17.5 -5.5t7.5 -30.5q0 -15 -6.5 -28t-18.5 -19q-26 -14 -83.5 -22.5t-124.5 -8.5q-127 0 -196.5 54t-69.5 143q0 48 17.5 87.5t48 67t70 45.5t90.5 29t110 11
t110 -10.5t76.5 -40t25.5 -79.5zM401 306q0 24 -13.5 38t-34.5 14q-34 0 -54.5 -25t-27.5 -94l-1 -25q58 6 94.5 29.5t36.5 62.5z" />
    <glyph glyph-name="f" unicode="f" horiz-adv-x="435" 
d="M427 655q0 -17 -9 -26t-23 -9l-26 1q-19 0 -32 -9.5t-19 -32t-8 -48.5q-1 -16 -1 -58.5v-55.5q51 4 63 4q16 0 27.5 -7t11.5 -37q0 -41 -41 -44l-61 -5q-5 -187 -5 -263q0 -22 -8.5 -37t-43.5 -23q-84 -19 -116 -19q-35 0 -47.5 19t-12.5 48l-3 261l-25 -1q-38 0 -38 35
q0 51 40 52l22 2v57q0 88 30.5 141t87.5 79.5t144 26.5q37 0 70 -11q5 -2 14 -8t9 -32z" />
    <glyph glyph-name="g" unicode="g" horiz-adv-x="645" 
d="M610 382q0 -152 -5 -330q-2 -61 -18.5 -107.5t-50.5 -78.5t-89 -49t-131 -17q-50 0 -70 11.5t-20 38.5q0 19 11.5 28t38.5 9q39 0 62 12.5t33.5 39t11.5 72.5q-52 -21 -132 -21q-22 0 -51 4t-58.5 16.5t-57.5 35.5t-46 62t-18 87q0 50 23 93.5t64 75t98 49t122 17.5
q87 0 146 -32q20 13 47.5 22t48.5 9q41 0 41 -47zM377 90q-4 166 -4 254q-18 6 -29 6q-37 0 -56 -29t-19 -101q0 -70 15.5 -103.5t57.5 -33.5q16 0 35 7z" />
    <glyph glyph-name="h" unicode="h" horiz-adv-x="633" 
d="M598 275l-5 -208q0 -18 -8 -32.5t-37 -21.5q-79 -19 -116 -19q-35 0 -49.5 15t-14.5 55v175q0 65 -53 65q-17 0 -39 -13l-7 -213q-1 -25 -8.5 -40.5t-44.5 -24.5q-72 -18 -112 -18t-50.5 19.5t-10.5 81.5l-5 480q0 41 6.5 61.5t19 29t26.5 13.5q37 14 76.5 22t69.5 8
q23 0 34 -15.5t11 -62.5l-3 -256q70 52 180 52q69 0 104.5 -33.5t35.5 -119.5z" />
    <glyph glyph-name="i" unicode="i" horiz-adv-x="311" 
d="M284 623q0 -30 -19.5 -52.5t-54 -37t-71.5 -14.5q-22 0 -48 8t-44.5 28.5t-18.5 45.5q0 30 19.5 52.5t54 37t71.5 14.5q22 0 48.5 -8t44.5 -28.5t18 -45.5zM276 365q0 -9 -3 -123.5t-4 -174.5q0 -30 -12 -42.5t-40 -17.5q-76 -13 -117 -13q-35 0 -47.5 19t-12.5 48
q0 59 -2.5 159t-2.5 114q0 38 14.5 56t49.5 24q85 16 134 16q20 0 31.5 -11.5t11.5 -53.5z" />
    <glyph glyph-name="j" unicode="j" horiz-adv-x="337" 
d="M310 623q0 -30 -19.5 -52.5t-54 -37t-71.5 -14.5q-22 0 -48 8t-44.5 28.5t-18.5 45.5q0 30 19.5 52.5t54 37t71.5 14.5q22 0 48.5 -8t44.5 -28.5t18 -45.5zM302 364q0 -99 -5 -284q-2 -99 -24.5 -159t-75.5 -93.5t-144 -33.5q-42 0 -77 7q-18 4 -25.5 16t-7.5 33
q0 19 10 29t27 10q43 0 65 25t22 64l-3 357q0 28 10 46.5t54 30.5q65 17 131 17q20 0 31.5 -11.5t11.5 -53.5z" />
    <glyph glyph-name="k" unicode="k" horiz-adv-x="624" 
d="M606 41q0 -11 -6.5 -20t-15.5 -11q-15 -3 -85.5 -8.5t-87.5 -5.5q-16 0 -24 8.5t-8 27.5q0 49 -6 81t-24.5 48t-75.5 16l-3 -104q0 -22 -9 -37.5t-43 -24.5q-65 -17 -115 -17q-35 0 -47.5 19t-12.5 48l-5 536q0 28 11 51t53 37q76 25 130 25q22 0 35 -14t13 -59l-4 -368
q52 0 78.5 27.5t36.5 106.5q1 12 10.5 19.5t24.5 7.5q62 0 103 -2t49 -7.5t8 -16.5q0 -26 -13 -59.5t-48.5 -61t-89.5 -36.5q-4 -1 -4 -3.5t4 -2.5q92 -7 131.5 -57t39.5 -143z" />
    <glyph glyph-name="l" unicode="l" horiz-adv-x="319" 
d="M281 635l-8 -562q0 -22 -8.5 -37t-43.5 -23q-84 -19 -117 -19q-35 0 -47.5 19t-12.5 48q0 98 -3 307.5t-3 229.5q0 37 15 56.5t49 30.5q75 25 131 25q22 0 35 -15t13 -60z" />
    <glyph glyph-name="m" unicode="m" horiz-adv-x="956" 
d="M921 275l-5 -213q0 -46 -47 -54q-81 -14 -121 -14q-35 0 -48.5 15t-13.5 55v171q0 27 -10 46t-41 19q-13 0 -37 -12q0 -19 -2.5 -102t-2.5 -124q0 -45 -45 -54q-20 -4 -59 -9t-60 -5q-35 0 -49.5 15t-14.5 55v175q0 27 -10 46t-41 19q-17 0 -39 -13l-7 -219
q-1 -25 -8 -38.5t-45 -22.5q-64 -16 -113 -16q-31 0 -46.5 13.5t-16.5 87.5l-4 235q0 69 53 80q93 20 144 20q30 0 38 -18t7 -48q39 33 81.5 48t96.5 15q52 0 82.5 -18.5t46.5 -54.5q88 73 190 73q70 0 108.5 -34.5t38.5 -118.5z" />
    <glyph glyph-name="n" unicode="n" horiz-adv-x="637" 
d="M602 275l-6 -213q0 -46 -45 -54q-81 -14 -121 -14q-35 0 -49.5 15t-14.5 55v175q0 27 -10 46t-41 19q-17 0 -39 -13l-7 -219q-1 -25 -8 -38.5t-45 -22.5q-64 -16 -113 -16q-31 0 -46.5 13.5t-16.5 87.5t-3 144.5t-2 90.5q0 33 12.5 52t40.5 26q32 8 72.5 15t65.5 7
q24 0 35 -14t11 -51q36 30 83.5 46t100.5 16q70 0 108 -34.5t38 -118.5z" />
    <glyph glyph-name="o" unicode="o" horiz-adv-x="675" 
d="M655 223q0 -57 -26.5 -101.5t-72.5 -74t-107 -44t-129 -14.5q-64 0 -118.5 12.5t-95.5 38t-63.5 65t-22.5 90.5q0 59 26 104t71.5 74t105.5 43t127 14q63 0 118 -11t97 -35.5t66 -65t24 -95.5zM406 211q0 73 -14.5 109.5t-51.5 36.5q-15 0 -31.5 -13t-27 -49.5
t-10.5 -89.5q0 -75 14.5 -109.5t50.5 -34.5q12 0 28.5 11.5t29 47t12.5 91.5z" />
    <glyph glyph-name="p" unicode="p" horiz-adv-x="648" 
d="M628 227q0 -78 -41 -130.5t-120.5 -81t-201.5 -28.5q-5 -100 -5 -109q0 -22 -8.5 -36.5t-43.5 -23.5q-72 -19 -106 -19q-35 0 -47.5 18.5t-12.5 47.5l-6 464q0 28 10 47.5t54 35.5q45 16 69.5 22t47.5 6q21 0 33.5 -13t13.5 -38q55 38 144 38q42 0 82 -14.5t71 -41
t49 -64t18 -80.5zM379 204q0 60 -19 91.5t-53 31.5q-17 0 -34 -7q0 -1 -3 -108.5t-5 -154.5q69 3 91.5 38t22.5 109z" />
    <glyph glyph-name="q" unicode="q" horiz-adv-x="649" 
d="M614 381q0 -46 -5 -245t-8 -264q-1 -30 -11.5 -41t-40.5 -19q-54 -14 -106 -14q-35 0 -47 18.5t-12 47.5l-2 144q-20 -7 -49.5 -12t-56.5 -5q-53 0 -99.5 12.5t-81.5 38t-55 65t-20 90.5q0 41 17.5 82.5t57.5 75t97.5 55t123.5 21.5q24 0 50 -2.5t47.5 -8t39 -12.5
t19.5 -8q26 15 53.5 24t46.5 9q22 0 32 -10.5t10 -41.5zM377 83q-1 40 -1.5 138.5t-0.5 122.5q-13 6 -39 6q-67 0 -67 -141q0 -66 21 -100.5t51 -34.5q16 0 36 9z" />
    <glyph glyph-name="r" unicode="r" horiz-adv-x="487" 
d="M479 352q0 -41 -27 -68t-71 -27q-17 0 -34.5 7.5t-28 26.5t-12.5 45q-14 -7 -24.5 -20.5t-11.5 -35.5l-3 -213q-1 -30 -11.5 -42.5t-37.5 -17.5q-65 -13 -117 -13q-35 0 -47.5 19t-12.5 48l-6 273q0 38 14.5 55.5t49.5 24.5q83 16 124 16q46 0 46 -79q37 61 65 75t61 14
q38 0 61 -24.5t23 -63.5z" />
    <glyph glyph-name="s" unicode="s" horiz-adv-x="488" 
d="M472 128q0 -40 -28.5 -69.5t-83.5 -48t-134 -18.5q-52 0 -106.5 4.5t-73.5 11.5q-30 11 -30 32t9.5 31.5t23.5 10.5l58 -6q33 0 49.5 8.5t16.5 30.5q0 8 -5 16.5t-15 17t-27.5 19.5t-20.5 13q-37 24 -54.5 47t-17.5 55q0 42 29 73.5t85.5 51t138.5 19.5q46 0 87 -3t58 -8
q14 -4 23 -11t9 -28q0 -15 -9.5 -25.5t-23.5 -10.5l-39 3q-34 0 -54.5 -9t-20.5 -33q0 -8 8.5 -18.5t71.5 -45.5q76 -42 76 -110z" />
    <glyph glyph-name="t" unicode="t" horiz-adv-x="454" 
d="M442 65q0 -38 -22 -50q-15 -8 -56 -14.5t-103 -6.5q-60 0 -100 21t-62 62.5t-22 107.5l-2 129l-28 -2q-22 0 -30.5 8t-8.5 32q0 21 9.5 32.5t31.5 12.5l25 3v82q0 19 5 36t15.5 26t30.5 18q33 15 73.5 27.5t67.5 12.5q21 0 34.5 -13t12.5 -63l-3 -110l75 5q20 0 29.5 -8
t9.5 -29q0 -49 -41 -50l-72 -6q-4 -83 -4 -156q0 -27 7 -47.5t22.5 -29t39.5 -8.5l43 4q23 0 23 -26z" />
    <glyph glyph-name="u" unicode="u" horiz-adv-x="631" 
d="M596 357l-6 -267q0 -34 -11 -54.5t-38 -25.5q-82 -15 -127 -15q-24 0 -37 14t-13 49q-79 -61 -189 -61q-68 0 -104 50.5t-36 135.5v180q0 46 45 54q25 4 64.5 8.5t62.5 4.5q35 0 49.5 -15t14.5 -55l-5 -171q0 -67 52 -67q25 0 44 13q1 30 -1 105.5t-2 107.5q0 29 12.5 43
t43.5 22q22 5 60.5 11t58.5 6q41 0 51.5 -13t10.5 -60z" />
    <glyph glyph-name="v" unicode="v" horiz-adv-x="559" 
d="M549 392q0 -14 -10.5 -51t-46.5 -140q-35 -98 -73 -161q-19 -30 -46 -33q-23 -2 -95 -6t-88 -4q-25 0 -47 36q-34 56 -68 142q-65 164 -65 203q0 24 32 29q34 6 95 12.5t82 6.5q39 0 45 -35q15 -77 35 -157t34 -121q41 97 63.5 163t28.5 128q1 10 10 17.5t19 7.5
q13 0 36 -3.5t34 -6.5q10 -3 17.5 -10.5t7.5 -16.5z" />
    <glyph glyph-name="w" unicode="w" horiz-adv-x="881" 
d="M866 391q0 -7 -2.5 -20.5t-10 -36.5t-24 -69.5t-19.5 -55.5q-15 -42 -36 -90t-40 -80q-19 -30 -46 -33q-24 -2 -89 -6t-81 -4q-27 0 -47 36q-6 11 -34 83q-18 -50 -34 -76q-19 -30 -46 -33q-25 -2 -88 -6t-79 -4q-25 0 -47 36q-34 56 -68 142q-65 164 -65 202q0 24 32 29
q35 6 92.5 12.5t78.5 6.5q39 0 45 -35q38 -193 68 -279q30 63 56 143q-32 101 -32 126q0 24 32 29q33 5 88 11t76 6q39 0 45 -35q15 -78 34.5 -156t33.5 -119q49 115 68 178t25 110q1 10 10 17.5t19 7.5q28 0 60 -10q10 -3 17.5 -10.5t7.5 -16.5z" />
    <glyph glyph-name="x" unicode="x" horiz-adv-x="554" 
d="M538 389q0 -29 -31 -78.5t-85 -91.5q25 -17 52.5 -48.5t45 -71t17.5 -63.5q0 -27 -42 -35q-61 -13 -157 -13q-21 0 -34.5 6t-22.5 30q-10 26 -31 58t-42 47q-11 -9 -28.5 -35t-26.5 -52q-7 -21 -15.5 -35t-25.5 -14l-74 5q-22 5 -22 24t15 54t44 76.5t62 63.5
q-49 40 -84.5 86.5t-35.5 74.5q0 25 41 33q33 6 84 10.5t86 4.5q21 0 37 -5.5t21 -24.5q6 -23 26 -54t40 -47q20 16 38 44t25 52q4 16 11.5 26t25.5 10q38 0 65 -8q21 -8 21 -29z" />
    <glyph glyph-name="y" unicode="y" horiz-adv-x="626" 
d="M591 329q0 -77 -7 -264q-5 -137 -73 -201t-215 -64q-50 0 -72 13q-11 6 -14.5 16t-3.5 27q0 15 10.5 23t23.5 8q41 0 69.5 11t42.5 46t14 94q-28 -21 -66 -34.5t-110 -13.5q-68 0 -104 37.5t-41 127.5q0 3 -3.5 61.5t-5 93.5t-1.5 53q0 46 45 54q81 14 121 14
q36 0 50 -14t14 -56q0 -21 -2.5 -96.5t-1.5 -99.5q3 -65 60 -65q19 0 45 15q1 31 -1 126t-2 112q0 25 7.5 40.5t44.5 24.5q56 14 115 14q30 0 42 -10t15.5 -30.5t3.5 -62.5z" />
    <glyph glyph-name="z" unicode="z" horiz-adv-x="526" 
d="M511 73q0 -71 -41 -72q-52 -2 -181.5 -4t-217.5 -2q-28 0 -42 10t-14 33q0 10 5 27t29 53q8 11 63 90t72 107q-16 0 -63.5 -3.5t-64.5 -3.5q-29 0 -29 55q0 54 33 54q53 0 205.5 4.5t160.5 4.5q23 0 38.5 -10.5t15.5 -33.5q0 -14 -7 -29.5t-33 -52.5l-138 -199q30 0 94 8
t87 8q11 0 19.5 -6.5t8.5 -37.5z" />
    <glyph glyph-name="braceleft" unicode="{" horiz-adv-x="508" 
d="M448 -151q0 -16 -3.5 -26.5t-15.5 -10.5q-135 0 -205.5 20t-100 58t-29.5 90q0 39 18 90.5t18 84.5q0 18 -8.5 37t-29.5 30.5t-45 11.5q-17 0 -17 34q0 35 17 35q22 0 43 10t30.5 27.5t9.5 35.5q0 33 -18 87t-18 93t16 69t48.5 51.5t95 34.5t177.5 13q17 0 17 -38
q0 -19 -5 -27.5t-12 -8.5q-52 0 -76 -27.5t-24 -81.5q0 -18 9.5 -62.5t9.5 -71.5q0 -48 -20.5 -78t-76.5 -48q-27 -8 -27 -13q0 -2 3.5 -4.5t24.5 -8.5q52 -15 74 -46.5t22 -79.5q0 -26 -9.5 -69t-9.5 -67q0 -107 98 -107q19 0 19 -37z" />
    <glyph glyph-name="bar" unicode="|" horiz-adv-x="313" 
d="M223 710v-936q0 -21 -10 -28q-4 -2 -33.5 -5.5t-47.5 -3.5q-27 0 -33 9q-9 13 -9 35v936q0 20 8 27q4 3 33.5 6t53.5 3t32 -11q6 -9 6 -32z" />
    <glyph glyph-name="braceright" unicode="}" horiz-adv-x="508" 
d="M448 268q0 -34 -17 -34q-24 0 -45 -11.5t-29.5 -30.5t-8.5 -37q0 -33 18 -84.5t18 -90.5q0 -52 -29.5 -90t-100 -58t-205.5 -20q-9 0 -14 8t-5 29q0 37 19 37q98 0 98 107q0 24 -9.5 67t-9.5 69q0 48 22 79.5t74 46.5q15 4 21.5 6.5t6.5 6.5q0 5 -27 13q-56 18 -76.5 48
t-20.5 78q0 27 9.5 71.5t9.5 62.5q0 54 -24 81.5t-76 27.5q-7 0 -12 8.5t-5 27.5q0 38 17 38q94 0 155 -9t103 -30t60.5 -55.5t18.5 -73.5t-18 -93t-18 -87q0 -18 9.5 -35.5t30.5 -27.5t43 -10q17 0 17 -35z" />
    <glyph glyph-name="asciitilde" unicode="~" horiz-adv-x="616" 
d="M562 354q0 -45 -11.5 -77.5t-32 -52t-46.5 -28t-52 -8.5q-52 0 -109 28t-70 33q-23 10 -36 10q-16 0 -25 -6.5t-14 -32.5q-2 -13 -9 -20t-49 -7q-36 0 -44.5 4.5t-8.5 21.5q0 46 16.5 80.5t49 56t79.5 21.5q52 0 104.5 -26.5t73.5 -34.5q28 -10 44 -10q12 0 19.5 8.5
t10.5 37.5q1 10 9 15.5t51 5.5q24 0 37 -2.5t13 -16.5z" />
    <glyph glyph-name="exclamdown" unicode="&#xa1;" horiz-adv-x="410" 
d="M322 420q0 -41 -41.5 -66.5t-84.5 -25.5q-49 0 -80 23t-31 57q0 27 17 46.5t47 32t63 12.5q54 0 82 -22t28 -57zM355 -151q0 -18 -10 -28t-43 -16t-98 -6q-52 0 -83 4t-48.5 13t-17.5 32q0 33 10 98t27 129q28 112 51.5 146t61.5 34q22 0 39 -10.5t32 -41.5t41 -126
q17 -60 27.5 -130t10.5 -98z" />
    <glyph glyph-name="cent" unicode="&#xa2;" horiz-adv-x="577" 
d="M517 206q0 -16 -7 -29.5t-16 -17.5q-42 -21 -106 -27l9 -132q0 -38 -35 -38q-18 0 -31.5 7t-14.5 33l-9 127q-49 2 -93 13.5t-79 35.5t-55 62t-20 88q0 38 9.5 70.5t30 61t63.5 56t114 41.5l-1 12q-4 51 -4 71q0 16 7 27.5t37 11.5q15 0 26.5 -7.5t13.5 -33.5l5 -69v-2
l38 1q6 0 62 -4q20 -2 33 -10t13 -37q0 -18 -8.5 -27t-20.5 -9h-38q-58 0 -94 -33.5t-36 -98.5q0 -67 27 -94.5t74 -27.5q25 0 50 6.5t30 6.5q26 2 26 -34z" />
    <glyph glyph-name="sterling" unicode="&#xa3;" horiz-adv-x="651" 
d="M591 148q0 -19 -4.5 -49t-10.5 -52q-7 -28 -13.5 -37.5t-22.5 -9.5q-9 0 -47 7t-130 7q-39 0 -92.5 -1.5t-113 -5t-61.5 -3.5q-27 0 -27 69q0 40 32 49l4 1q18 9 25 24.5t7 47.5v101l-41 -1q-36 -1 -36 33q0 17 6.5 30t31.5 14l39 1v74q0 126 70 181.5t211 55.5
q24 0 61.5 -4t53.5 -9q18 -5 30 -16.5t12 -36.5q0 -23 -4.5 -34.5t-21.5 -12.5q-6 0 -24.5 4.5t-34.5 7t-32 2.5q-42 0 -63 -23.5t-21 -66.5v-114l111 5q20 1 28.5 -7.5t8.5 -31.5q0 -36 -39 -38l-109 -3v-29q0 -32 -17 -63t-47 -54q113 16 256 16q25 0 25 -28z" />
    <glyph glyph-name="yen" unicode="&#xa5;" horiz-adv-x="780" 
d="M730 644q0 -36 -72 -177q-30 -59 -115 -178l90 6q15 0 25.5 -6.5t10.5 -35.5q0 -14 -7 -25t-31 -13l-102 -7l-2 -54l103 7q15 0 26 -7t11 -35q0 -14 -7 -25t-32 -13l-103 -7l-1 -16q-3 -57 -50 -62q-35 -4 -88 -8t-79 -4q-49 0 -49 58v16l-103 -7q-36 0 -36 33
q0 17 6.5 30t31.5 14l100 7v56l-99 -6q-36 0 -36 33q0 17 6.5 30t31.5 14l97 6v3q-110 139 -186 295q-9 17 -15 36.5t-6 29.5q0 12 9.5 21t39.5 13q40 5 102 9.5t94 4.5q23 0 40 -7.5t25 -34.5q41 -144 101 -247q35 50 68 112.5t53 124.5q9 26 17.5 42t26.5 16q11 0 41.5 -6
t40.5 -10q11 -4 16.5 -9.5t5.5 -16.5z" />
    <glyph glyph-name="brokenbar" unicode="&#xa6;" horiz-adv-x="313" 
d="M223 710v-350q0 -21 -10 -28q-4 -2 -33.5 -5.5t-47.5 -3.5q-27 0 -33 9q-9 13 -9 35v350q0 20 8 27q4 3 33.5 6t53.5 3t32 -11q6 -9 6 -32zM223 131v-357q0 -21 -10 -28q-4 -2 -33.5 -5.5t-47.5 -3.5q-27 0 -33 9q-9 13 -9 35v357q0 20 8 27q4 3 33.5 6t53.5 3t32 -11
q6 -9 6 -32z" />
    <glyph glyph-name="section" unicode="&#xa7;" horiz-adv-x="638" 
d="M540 275q0 -50 -23.5 -86.5t-69.5 -54.5q30 -23 45 -48t15 -62q0 -35 -13 -68t-42.5 -56.5t-73.5 -36t-101 -12.5q-31 0 -75 5t-73 15q-12 4 -18.5 9.5t-6.5 21.5q0 19 5.5 29t20.5 10q14 0 42.5 -6.5t42.5 -6.5q43 0 68 13t29.5 26t4.5 19q0 20 -15.5 40t-36.5 36
t-43 31q-44 30 -71 53.5t-40.5 49t-13.5 49.5q0 101 103 145q-66 46 -66 113q0 33 13 66t43 58t74 40t98 15q29 0 68.5 -6t57.5 -14q26 -12 26 -31q0 -21 -5.5 -30t-20.5 -9q-12 0 -40.5 6t-43.5 5q-31 -1 -52 -19t-21 -49q0 -11 6 -25t22 -28.5t74 -53.5q63 -43 85 -79.5
t22 -73.5zM377 256q0 25 -66 62q-12 -8 -22 -21.5t-10 -27.5q0 -11 12 -23.5t47 -29.5q14 7 26.5 17.5t12.5 22.5z" />
    <glyph glyph-name="dieresis" unicode="&#xa8;" horiz-adv-x="638" 
d="M538 582q0 -14 -10 -29.5t-33 -25t-46 -9.5q-38 0 -57.5 15t-19.5 40q0 14 10.5 29.5t33.5 25.5t44 10q35 0 56.5 -16t21.5 -40zM266 582q0 -14 -10 -29.5t-33 -25t-46 -9.5q-38 0 -57.5 15t-19.5 40q0 14 10.5 29.5t33.5 25.5t44 10q35 0 56.5 -16t21.5 -40z" />
    <glyph glyph-name="copyright" unicode="&#xa9;" horiz-adv-x="904" 
d="M844 333q0 -72 -29 -137t-82 -114t-125.5 -76.5t-155.5 -27.5q-87 0 -160.5 28t-125 77t-79 114t-27.5 136q0 72 29 137t82 114t125.5 76.5t155.5 27.5q87 0 160.5 -28t125 -77t79 -114t27.5 -136zM767 333q0 63 -22.5 117.5t-64.5 95t-101 62.5t-127 22t-127 -22
t-101 -62.5t-64.5 -95t-22.5 -117.5t22.5 -117.5t64.5 -95t101 -62.5t127 -22t127 22t101 62.5t64.5 95t22.5 117.5zM613 185q0 -20 -14 -28q-23 -12 -59 -18t-68 -6q-95 0 -153.5 51.5t-58.5 142.5q0 55 21 97t57.5 69t83.5 40t97 13q47 0 69 -9q17 -7 17 -29q0 -13 -8 -23
t-18 -10q-4 0 -17 3t-27 3q-46 0 -70.5 -38t-24.5 -103q0 -75 23 -106.5t66 -31.5q13 0 34 7t25 7q11 0 18 -7.5t7 -23.5z" />
    <glyph glyph-name="ordfeminine" unicode="&#xaa;" horiz-adv-x="568" 
d="M500 654l-4 -215q0 -14 -6 -24t-30 -15q-51 -11 -84 -11q-15 0 -25 8t-14 21q-46 -22 -113 -22q-75 0 -115.5 34t-40.5 102q0 43 28 79t78 53.5t102 17.5q72 0 116 -22q14 8 36.5 16t42.5 8q11 0 20 -5.5t9 -24.5zM324 463l-1 162q-9 3 -22 3q-55 0 -55 -83q0 -39 10 -64
t37 -25q20 0 31 7z" />
    <glyph glyph-name="guillemotleft" unicode="&#xab;" horiz-adv-x="627" 
d="M572 51q0 -3 -2.5 -9.5t-11.5 -12.5q-16 -13 -25 -13q-16 0 -40 20q-70 57 -171 160q-13 13 -13 24q0 10 12 24q36 39 88 87.5t93 80.5q16 13 29 13q12 0 23 -10q18 -15 18 -23q0 -5 -14 -30q-23 -40 -45 -83.5t-28 -58.5q7 -18 31.5 -65.5t45.5 -83.5q10 -17 10 -20z
M318 51q0 -3 -2.5 -9.5t-11.5 -12.5q-16 -13 -25 -13q-16 0 -40 20q-70 57 -171 160q-13 13 -13 24q0 10 12 24q36 39 88 87.5t93 80.5q16 13 29 13q12 0 23 -10q18 -15 18 -23q0 -5 -14 -30q-23 -40 -45 -83.5t-28 -58.5q7 -18 31.5 -65.5t45.5 -83.5q10 -17 10 -20z" />
    <glyph glyph-name="logicalnot" unicode="&#xac;" 
d="M530 272q0 -51 -36 -92.5t-94.5 -61.5t-110.5 -20q-39 0 -77 7.5t-70.5 28t-47 52t-14.5 63.5q0 30 15.5 61t49 56t80.5 41t94 16q95 0 153 -43t58 -108z" />
    <glyph glyph-name="registered" unicode="&#xae;" horiz-adv-x="451" 
d="M412 514q0 -76 -52 -126.5t-134 -50.5q-30 0 -62.5 9t-59.5 30.5t-45.5 56.5t-18.5 81q0 75 51.5 125.5t134.5 50.5q82 0 134 -50.5t52 -125.5zM373 514q0 64 -41 105t-106 41q-66 0 -107 -40.5t-41 -105.5t41 -106t107 -41t106.5 41t40.5 106zM319 441q0 -8 -6 -10
l-52 -5q-8 0 -8 9q0 28 -9.5 40.5t-34.5 11.5l-1 -35q0 -4 -1.5 -10.5t-12.5 -8.5q-20 -4 -43 -4q-12 0 -12 11l-2 145q0 17 16 21q24 6 71 6q44 0 69 -13t25 -39q0 -15 -10 -28.5t-44 -22.5q23 -2 39 -20t16 -48zM244 556q0 31 -22 31l-9 -1l-3 -73q17 1 25.5 9.5t8.5 33.5
z" />
    <glyph glyph-name="macron" unicode="&#xaf;" horiz-adv-x="638" 
d="M497 579q0 -39 -19 -39l-160 2l-155 -2q-21 0 -21 37q0 40 21 40l156 -2l159 2q19 0 19 -38z" />
    <glyph glyph-name="degree" unicode="&#xb0;" horiz-adv-x="340" 
d="M310 576q0 -28 -14 -59t-50 -54t-77 -23q-59 0 -99 39.5t-40 93.5q0 56 41 96t100 40q37 0 67.5 -16t51 -46.5t20.5 -70.5zM232 575q0 25 -16.5 45t-45.5 20q-27 0 -44 -20.5t-17 -46.5q0 -27 18 -45.5t44 -18.5t43.5 19t17.5 47z" />
    <glyph glyph-name="plusminus" unicode="&#xb1;" 
d="M530 272q0 -51 -36 -92.5t-94.5 -61.5t-110.5 -20q-39 0 -77 7.5t-70.5 28t-47 52t-14.5 63.5q0 30 15.5 61t49 56t80.5 41t94 16q95 0 153 -43t58 -108z" />
    <glyph glyph-name="uni00B2" unicode="&#xb2;" horiz-adv-x="440" 
d="M415 329q0 -47 -30 -48q-277 -11 -333 -11q-21 0 -21 25q0 7 5.5 16.5t10.5 14.5q8 8 41 41.5t55 59.5t35 48t17.5 38.5t4.5 29.5q0 27 -14 39.5t-43 12.5q-14 0 -31 -7t-37.5 -22t-25.5 -15q-7 0 -18 14q-10 10 -10 20q0 2 1 5t11 17q65 83 206 83q43 0 75.5 -15t50 -44
t17.5 -71q0 -25 -12.5 -58t-39.5 -68.5t-78 -93.5q55 3 97.5 10.5t44.5 7.5q21 0 21 -29z" />
    <glyph glyph-name="uni00B3" unicode="&#xb3;" horiz-adv-x="440" 
d="M400 396q0 -60 -50.5 -96t-130.5 -36q-47 0 -90.5 5t-83.5 26q-9 6 -13 9t-4 9q0 12 9 28q2 4 7 12t12 8l13 -4q33 -12 80 -12q26 0 46.5 8.5t29 23.5t8.5 30q0 29 -16 43t-42 14l-24 -1q-7 0 -10.5 6t-3.5 25q0 28 16 28l23 -1q19 0 31.5 11.5t12.5 30.5q0 44 -60 44
q-45 0 -76 -23q-2 -2 -7 -2q-11 0 -23 15t-12 26q0 6 7 13q37 27 77 40t110 14q31 0 63.5 -8t53 -31t20.5 -54q0 -32 -19 -56.5t-52 -34.5l-4 -3q0 -2 4 -3q44 -8 71 -35.5t27 -68.5z" />
    <glyph glyph-name="acute" unicode="&#xb4;" horiz-adv-x="638" 
d="M446 591q0 -18 -23 -28q-10 -5 -88 -28q-107 -31 -118 -31q-10 0 -19 15q-6 12 -6 23q0 17 10 24q6 5 96 55q12 7 55 30.5t54 23.5q10 0 18.5 -15t12.5 -29q8 -24 8 -40z" />
    <glyph glyph-name="uni00B5" unicode="&#xb5;" horiz-adv-x="631" 
d="M596 357l-6 -267q0 -34 -11 -54.5t-38 -25.5q-82 -15 -127 -15q-24 0 -37 14t-13 49q-27 -21 -72.5 -39.5t-85.5 -18.5q3 -18 12 -61t9 -53q0 -22 -8.5 -36t-43.5 -24q-46 -13 -75 -13q-35 0 -47.5 19t-12.5 48l-5 483q0 46 45 54q25 4 64.5 8.5t62.5 4.5q35 0 49.5 -15
t14.5 -55l-5 -171q0 -37 11 -52t35 -15q12 0 26.5 3.5t23.5 9.5q1 30 -1 105.5t-2 107.5q0 29 12.5 43t43.5 22q22 5 60.5 11t58.5 6q41 0 51.5 -13t10.5 -60z" />
    <glyph glyph-name="paragraph" unicode="&#xb6;" horiz-adv-x="856" 
d="M816 631q0 -14 -6.5 -23t-31.5 -9l-73 2q0 -34 -8 -322.5t-8 -385.5q0 -20 -8 -34.5t-39 -19.5q-82 -13 -99 -15t-27 -2q-31 0 -42.5 17t-11.5 43l-1 118q-43 -7 -88 -7q-75 0 -137 22.5t-106 65t-67 105.5t-23 140q0 79 33 145t93.5 112.5t144.5 71.5t183 25
q53 0 142.5 -3.5t142.5 -3.5q15 0 26 -7t11 -35z" />
    <glyph glyph-name="periodcentered" unicode="&#xb7;" horiz-adv-x="390" 
d="M320 284q0 -28 -18 -49t-50 -34.5t-66 -13.5q-57 0 -86.5 23.5t-29.5 60.5q0 43 44 70t89 27q25 0 52.5 -8t46 -29t18.5 -47z" />
    <glyph glyph-name="cedilla" unicode="&#xb8;" horiz-adv-x="638" 
d="M514 -112q0 -39 -43.5 -63.5t-122.5 -24.5q-11 0 -41.5 2.5t-57.5 12.5q-1 1 -4.5 4t-3.5 11q0 11 7.5 20t16.5 9q4 0 26 -5t46 -5t37 7t13 20q0 24 -41 24q-13 0 -29.5 -3.5t-20.5 -3.5q-7 0 -14.5 6.5t-7.5 14.5t6 16l53 71h60l-40 -56q14 3 45 3q55 0 85.5 -15.5
t30.5 -44.5z" />
    <glyph glyph-name="uni00B9" unicode="&#xb9;" horiz-adv-x="350" 
d="M290 656q0 -44 -5 -186t-5 -145q0 -19 -11.5 -31.5t-24.5 -15.5q-43 -9 -77 -9q-40 0 -40 41q0 233 -1 269q-9 -2 -30.5 -10t-27.5 -8q-11 0 -18.5 14t-7.5 26q0 22 29 33q47 19 102 37t85 18q12 0 22 -8.5t10 -24.5z" />
    <glyph glyph-name="ordmasculine" unicode="&#xba;" horiz-adv-x="568" 
d="M518 548q0 -46 -30 -79.5t-85.5 -53t-130.5 -19.5q-71 0 -120.5 16.5t-75.5 45.5t-26 71q0 47 29.5 80.5t84 53t129.5 19.5q70 0 120 -15.5t77.5 -44.5t27.5 -74zM340 539q0 96 -54 96q-24 0 -40.5 -27t-16.5 -72q0 -41 11 -67.5t43 -26.5q15 0 29.5 13.5t21 37t6.5 46.5
z" />
    <glyph glyph-name="guillemotright" unicode="&#xbb;" horiz-adv-x="627" 
d="M572 220q0 -11 -13 -24q-101 -103 -171 -160q-24 -20 -40 -20q-9 0 -25 13q-5 3 -9.5 9.5t-4.5 12.5q0 3 10 20q21 36 45.5 83.5t31.5 65.5q-6 15 -28 58.5t-45 83.5q-14 25 -14 30q0 8 18 23q11 10 23 10q13 0 29 -13q29 -23 79 -68t102 -100q12 -14 12 -24zM318 220
q0 -11 -13 -24q-101 -103 -171 -160q-24 -20 -40 -20q-9 0 -25 13q-5 3 -9.5 9.5t-4.5 12.5q0 3 10 20q21 36 45.5 83.5t31.5 65.5q-6 15 -28 58.5t-45 83.5q-14 25 -14 30q0 8 18 23q11 10 23 10q13 0 29 -13q29 -23 79 -68t102 -100q12 -14 12 -24z" />
    <glyph glyph-name="onequarter" unicode="&#xbc;" horiz-adv-x="965" 
d="M903 131q0 -13 -6 -29q-3 -6 -8.5 -10.5t-9.5 -5.5l-41 -5l-1 -41q-1 -13 -6 -23t-30 -15q-47 -10 -72 -10q-16 0 -27.5 6t-13.5 37l-2 38l-105 -3q-72 0 -72 68q0 27 20 66t62 84.5t73 69.5q58 44 84 47q50 5 66 5q33 0 33 -33q0 -10 -3.5 -100t-4.5 -131q17 0 30.5 2
t18.5 2q15 0 15 -19zM749 641q0 -12 -14 -30l-213 -287l-236 -329q-14 -17 -25 -17q-4 0 -21.5 8.5t-29.5 17.5q-21 15 -21 27q0 16 13 33l242 336l205 282q14 17 23 17q5 0 21.5 -9t36.5 -22q19 -13 19 -27zM308 656q0 -44 -5 -186t-5 -145q0 -19 -11.5 -31.5t-24.5 -15.5
q-43 -9 -77 -9q-40 0 -40 41q0 233 -1 269q-9 -2 -30.5 -10t-27.5 -8q-11 0 -18.5 14t-7.5 26q0 22 29 33q47 19 102 37t85 18q12 0 22 -8.5t10 -24.5zM685 138l-2 160q-42 -40 -66 -76.5t-24 -60.5q0 -13 6 -19.5t38 -6.5z" />
    <glyph glyph-name="onehalf" unicode="&#xbd;" horiz-adv-x="965" 
d="M923 44q0 -47 -30 -48q-277 -11 -333 -11q-21 0 -21 25q0 7 5.5 16.5t10.5 14.5q8 8 41 41.5t55 59.5t35 48t17.5 38.5t4.5 29.5q0 27 -14 39.5t-43 12.5q-14 0 -31 -7t-37.5 -22t-25.5 -15q-7 0 -18 14q-10 10 -10 20q0 2 1 5t11 17q66 83 206 83q43 0 75.5 -15t50 -44
t17.5 -71q0 -25 -12.5 -58t-39.5 -68.5t-78 -93.5q55 3 97.5 10.5t44.5 7.5q21 0 21 -29zM706 641q0 -12 -14 -30l-213 -287l-236 -329q-14 -17 -25 -17q-4 0 -21.5 8.5t-29.5 17.5q-21 15 -21 27q0 16 13 33l242 336l205 282q14 17 23 17q5 0 21.5 -9t36.5 -22
q19 -13 19 -27zM293 656q0 -44 -5 -186t-5 -145q0 -19 -11.5 -31.5t-24.5 -15.5q-43 -9 -77 -9q-40 0 -40 41q0 233 -1 269q-9 -2 -30.5 -10t-27.5 -8q-11 0 -18.5 14t-7.5 26q0 22 29 33q47 19 102 37t85 18q12 0 22 -8.5t10 -24.5z" />
    <glyph glyph-name="threequarters" unicode="&#xbe;" horiz-adv-x="965" 
d="M933 131q0 -13 -6 -29q-3 -6 -8.5 -10.5t-9.5 -5.5l-41 -5l-1 -41q-1 -13 -6 -23t-30 -15q-47 -10 -72 -10q-16 0 -27.5 6t-13.5 37l-2 38l-105 -3q-72 0 -72 68q0 27 20 66t62 84.5t73 69.5q58 44 84 47q50 5 66 5q33 0 33 -33l-8 -233q17 0 30.5 3t18.5 3q15 0 15 -19z
M803 641q0 -12 -14 -30l-213 -287l-236 -329q-14 -17 -25 -17q-4 0 -21.5 8.5t-29.5 17.5q-21 15 -21 27q0 16 13 33l242 336l205 282q14 17 23 17q5 0 21.5 -9t36.5 -22q19 -13 19 -27zM402 396q0 -60 -50 -96t-131 -36q-48 0 -91 5t-83 26q-9 6 -13 9t-4 9q0 12 9 28
q2 4 7 12t12 8l13 -4q28 -12 80 -12q26 0 46.5 8.5t29 23.5t8.5 30q0 29 -16 43t-42 14l-24 -1q-7 0 -10.5 6t-3.5 25q0 28 16 28l23 -1q19 0 31.5 11.5t12.5 30.5q0 44 -60 44q-45 0 -76 -23q-2 -2 -7 -2q-11 0 -23 15t-12 26q0 6 7 13q37 27 78 40.5t109 13.5
q48 0 81 -14.5t44.5 -36.5t11.5 -42q0 -32 -19 -56.5t-52 -34.5l-4 -3q0 -2 4 -3q44 -8 71 -35.5t27 -68.5zM715 143l-2 155q-42 -40 -66 -76.5t-24 -60.5q0 -9 6.5 -15t37.5 -6z" />
    <glyph glyph-name="questiondown" unicode="&#xbf;" 
d="M476 419q0 -41 -41.5 -66.5t-84.5 -25.5q-49 0 -79.5 23t-30.5 57q0 22 14 43t46.5 34.5t65.5 13.5q54 0 82 -22t28 -57zM555 -76q0 -10 -19 -31q-82 -91 -215 -91q-88 0 -146.5 20.5t-89 57.5t-30.5 93q0 58 28 103t83 77t137 44l-5 38q-3 26 63 26q20 0 32.5 -4
t13.5 -17l5 -78q1 -12 -4.5 -19t-24.5 -12q-48 -13 -76 -45t-28 -84q0 -48 26.5 -72.5t69.5 -24.5q27 0 51.5 11.5t50 34.5t31.5 23q14 0 30.5 -16t16.5 -34z" />
    <glyph glyph-name="Agrave" unicode="&#xc0;" horiz-adv-x="684" 
d="M674 43q0 -17 -5 -27t-37 -17q-36 -7 -84 -13t-79 -6q-33 0 -48.5 10t-20.5 36q-2 9 -10 57t-13 65q-35 0 -109 -4t-102 -9q-12 -37 -19 -115q-3 -34 -37 -34q-13 0 -38 2t-37 4q-25 5 -25 36q0 39 80 298q50 160 100 286q8 20 19.5 35t35.5 18q36 4 104 7.5t93 3.5
q48 0 72 -58q57 -139 80 -224q80 -296 80 -351zM356 255q-12 55 -40 141t-44 121q-17 -43 -41 -121t-40 -151q18 3 73.5 6t91.5 4zM484 754q0 -11 -6 -23q-9 -15 -19 -15q-11 0 -118 31q-78 23 -88 28q-23 10 -23 28q0 16 8 40q4 14 12.5 29t18.5 15q5 0 15 -4t44 -22.5
t50 -27.5q90 -50 96 -55q10 -7 10 -24z" />
    <glyph glyph-name="Aacute" unicode="&#xc1;" horiz-adv-x="684" 
d="M674 43q0 -17 -5 -27t-37 -17q-36 -7 -84 -13t-79 -6q-33 0 -48.5 10t-20.5 36q-2 9 -10 57t-13 65q-35 0 -109 -4t-102 -9q-12 -37 -19 -115q-3 -34 -37 -34q-13 0 -38 2t-37 4q-25 5 -25 36q0 39 80 298q50 160 100 286q8 20 19.5 35t35.5 18q36 4 104 7.5t93 3.5
q48 0 72 -58q57 -139 80 -224q80 -296 80 -351zM356 255q-12 55 -40 141t-44 121q-17 -43 -41 -121t-40 -151q18 3 73.5 6t91.5 4zM467 803q0 -18 -23 -28q-10 -5 -88 -28q-107 -31 -118 -31q-10 0 -19 15q-6 12 -6 23q0 17 10 24q6 5 96 55q12 7 55 30.5t54 23.5
q10 0 18.5 -15t12.5 -29q8 -24 8 -40z" />
    <glyph glyph-name="Acircumflex" unicode="&#xc2;" horiz-adv-x="684" 
d="M674 43q0 -17 -5 -27t-37 -17q-36 -7 -84 -13t-79 -6q-33 0 -48.5 10t-20.5 36q-2 9 -10 57t-13 65q-35 0 -109 -4t-102 -9q-12 -37 -19 -115q-3 -34 -37 -34q-13 0 -38 2t-37 4q-25 5 -25 36q0 39 80 298q50 160 100 286q8 20 19.5 35t35.5 18q36 4 104 7.5t93 3.5
q48 0 72 -58q57 -139 80 -224q80 -296 80 -351zM356 255q-12 55 -40 141t-44 121q-17 -43 -41 -121t-40 -151q18 3 73.5 6t91.5 4zM524 758q0 -9 -10 -24q-15 -20 -22 -20t-32 12q-89 48 -117 57q-27 -8 -121 -58q-22 -11 -28 -11q-3 0 -10.5 6t-11.5 12q-11 17 -11 30
q0 9 15 21l60 50q17 14 41 30.5t28 18.5q6 3 37 3q32 0 38 -3q10 -5 68 -49q16 -12 39.5 -32t27.5 -24q3 -3 6 -9.5t3 -9.5z" />
    <glyph glyph-name="Atilde" unicode="&#xc3;" horiz-adv-x="684" 
d="M674 43q0 -17 -5 -27t-37 -17q-36 -7 -84 -13t-79 -6q-33 0 -48.5 10t-20.5 36q-2 9 -10 57t-13 65q-35 0 -109 -4t-102 -9q-12 -37 -19 -115q-3 -34 -37 -34q-13 0 -38 2t-37 4q-25 5 -25 36q0 39 80 298q50 160 100 286q8 20 19.5 35t35.5 18q36 4 104 7.5t93 3.5
q48 0 72 -58q57 -139 80 -224q80 -296 80 -351zM356 255q-12 55 -40 141t-44 121q-17 -43 -41 -121t-40 -151q18 3 73.5 6t91.5 4zM552 806q0 -4 -16 -24.5t-45 -43t-60 -22.5q-13 0 -31 3t-49 20q-18 10 -31 15t-29 5q-8 0 -15.5 -6t-16 -19t-11.5 -13q-6 0 -15 4.5
t-16 11.5q-18 18 -18 27q0 7 20 34t45 42.5t48 15.5q48 0 84 -21q2 -1 22 -14t35 -13q9 0 18 6.5t19.5 21.5t13.5 15q12 0 30 -17l11 -11t7 -17z" />
    <glyph glyph-name="Adieresis" unicode="&#xc4;" horiz-adv-x="684" 
d="M674 43q0 -17 -5 -27t-37 -17q-36 -7 -84 -13t-79 -6q-33 0 -48.5 10t-20.5 36q-2 9 -10 57t-13 65q-35 0 -109 -4t-102 -9q-12 -37 -19 -115q-3 -34 -37 -34q-13 0 -38 2t-37 4q-25 5 -25 36q0 39 80 298q50 160 100 286q8 20 19.5 35t35.5 18q36 4 104 7.5t93 3.5
q48 0 72 -58q57 -139 80 -224q80 -296 80 -351zM356 255q-12 55 -40 141t-44 121q-17 -43 -41 -121t-40 -151q18 3 73.5 6t91.5 4zM580 793q0 -14 -10 -29.5t-33 -25t-46 -9.5q-38 0 -57.5 15t-19.5 40q0 14 10.5 29.5t33.5 25.5t44 10q35 0 56.5 -16t21.5 -40zM308 793
q0 -14 -10 -29.5t-33 -25t-46 -9.5q-38 0 -57.5 15t-19.5 40q0 14 10.5 29.5t33.5 25.5t44 10q35 0 56.5 -16t21.5 -40z" />
    <glyph glyph-name="Aring" unicode="&#xc5;" horiz-adv-x="684" 
d="M674 43q0 -17 -5 -27t-37 -17q-36 -7 -84 -13t-79 -6q-33 0 -48.5 10t-20.5 36q-2 9 -10 57t-13 65q-35 0 -109 -4t-102 -9q-12 -37 -19 -115q-3 -34 -37 -34q-13 0 -38 2t-37 4q-25 5 -25 36q0 39 80 298q50 160 100 286q8 20 19.5 35t35.5 18q36 4 104 7.5t93 3.5
q48 0 72 -58q57 -139 80 -224q80 -296 80 -351zM356 255q-12 55 -40 141t-44 121q-17 -43 -41 -121t-40 -151q18 3 73.5 6t91.5 4zM468 795q0 -22 -11.5 -47.5t-40 -43t-61.5 -17.5q-22 0 -48.5 10.5t-45 37t-18.5 58.5q0 21 11 46.5t39 44t63 18.5q23 0 49.5 -11t44.5 -38
t18 -58zM405 795q0 20 -13 36t-37 16q-22 0 -35.5 -16.5t-13.5 -37.5q0 -22 14.5 -36.5t35.5 -14.5t35 15.5t14 37.5z" />
    <glyph glyph-name="AE" unicode="&#xc6;" horiz-adv-x="925" 
d="M913 65q0 -29 -11 -42.5t-41 -17.5q-28 -4 -151.5 -7.5t-277.5 -3.5q-19 0 -31.5 10.5t-16.5 49.5l-5 94q-28 0 -96 -4.5t-98 -8.5q-12 -34 -33 -109q-9 -34 -38 -34q-8 0 -34.5 4t-41.5 7q-13 3 -20.5 10.5t-7.5 24.5q0 31 32.5 116.5t85.5 192.5q34 68 82 152t70 113
q21 27 35.5 39.5t33.5 13.5l106 4q282 5 405 9q17 1 26.5 -10t9.5 -43q0 -56 -40 -56l-188 2l-2 -144q54 0 119.5 7.5t71.5 7.5q17 0 24 -12t7 -44q0 -24 -7.5 -40.5t-33.5 -18.5q-144 -6 -182 -6l-6 -217q63 0 141.5 8t79.5 8q33 0 33 -55zM376 252q-3 94 -3 280
q-27 -39 -73.5 -133t-71.5 -154q67 5 148 7z" />
    <glyph glyph-name="Ccedilla" unicode="&#xc7;" horiz-adv-x="626" 
d="M611 82q0 -37 -23 -49q-35 -18 -89.5 -28t-110.5 -11l-35 -49q14 3 45 3q55 0 85.5 -15.5t30.5 -44.5q0 -39 -43.5 -63.5t-122.5 -24.5q-11 0 -41.5 2.5t-57.5 12.5q-1 1 -4.5 4t-3.5 11q0 11 7.5 20t16.5 9q4 0 26 -5t46 -5t37 7t13 20q0 24 -41 24q-13 0 -29.5 -3.5
t-20.5 -3.5q-7 0 -14.5 6.5t-7.5 14.5t6 16l49 66q-67 6 -123.5 29.5t-97 64t-62.5 98.5t-22 129q0 47 11.5 97.5t43.5 98t84.5 85.5t130 59t161.5 21q78 0 115 -15q12 -5 20 -14.5t8 -34.5q0 -23 -13 -39t-30 -16q-7 0 -28.5 5t-45.5 5q-79 0 -124.5 -61t-45.5 -169
q0 -229 162 -229q21 0 55.5 11t41.5 11q41 0 41 -50z" />
    <glyph glyph-name="Egrave" unicode="&#xc8;" horiz-adv-x="587" 
d="M575 67q0 -30 -11 -44t-40 -18t-149 -7.5t-274 -3.5q-28 0 -40.5 14t-13.5 49l-7 539q0 41 14 56.5t52 16.5l421 9q16 1 24 -12.5t8 -40.5q0 -26 -9 -41t-26 -15l-199 2l-2 -144q54 0 123 7t75 7q30 0 30 -55t-37 -58q-144 -6 -195 -6l-8 -219q63 0 147 8.5t85 8.5
q32 0 32 -53zM433 754q0 -11 -6 -23q-9 -15 -19 -15q-11 0 -118 31q-78 23 -88 28q-23 10 -23 28q0 16 8 40q4 14 12.5 29t18.5 15q5 0 15 -4t44 -22.5t50 -27.5q90 -50 96 -55q10 -7 10 -24z" />
    <glyph glyph-name="Eacute" unicode="&#xc9;" horiz-adv-x="587" 
d="M575 67q0 -30 -11 -44t-40 -18t-149 -7.5t-274 -3.5q-28 0 -40.5 14t-13.5 49l-7 539q0 41 14 56.5t52 16.5l421 9q16 1 24 -12.5t8 -40.5q0 -26 -9 -41t-26 -15l-199 2l-2 -144q54 0 123 7t75 7q30 0 30 -55t-37 -58q-144 -6 -195 -6l-8 -219q63 0 147 8.5t85 8.5
q32 0 32 -53zM433 803q0 -18 -23 -28q-10 -5 -88 -28q-107 -31 -118 -31q-10 0 -19 15q-6 12 -6 23q0 17 10 24q6 5 96 55q12 7 55 30.5t54 23.5q10 0 18.5 -15t12.5 -29q8 -24 8 -40z" />
    <glyph glyph-name="Ecircumflex" unicode="&#xca;" horiz-adv-x="587" 
d="M575 67q0 -30 -11 -44t-40 -18t-149 -7.5t-274 -3.5q-28 0 -40.5 14t-13.5 49l-7 539q0 41 14 56.5t52 16.5l421 9q16 1 24 -12.5t8 -40.5q0 -26 -9 -41t-26 -15l-199 2l-2 -144q54 0 123 7t75 7q30 0 30 -55t-37 -58q-144 -6 -195 -6l-8 -219q63 0 147 8.5t85 8.5
q32 0 32 -53zM486 758q0 -9 -10 -24q-15 -20 -22 -20t-32 12q-89 48 -117 57q-27 -8 -121 -58q-22 -11 -28 -11q-3 0 -10.5 6t-11.5 12q-11 17 -11 30q0 9 15 21l60 50q17 14 41 30.5t28 18.5q6 3 37 3q32 0 38 -3q10 -5 68 -49q16 -12 39.5 -32t27.5 -24q3 -3 6 -9.5
t3 -9.5z" />
    <glyph glyph-name="Edieresis" unicode="&#xcb;" horiz-adv-x="587" 
d="M575 67q0 -30 -11 -44t-40 -18t-149 -7.5t-274 -3.5q-28 0 -40.5 14t-13.5 49l-7 539q0 41 14 56.5t52 16.5l421 9q16 1 24 -12.5t8 -40.5q0 -26 -9 -41t-26 -15l-199 2l-2 -144q54 0 123 7t75 7q30 0 30 -55t-37 -58q-144 -6 -195 -6l-8 -219q63 0 147 8.5t85 8.5
q32 0 32 -53zM517 793q0 -14 -10 -29.5t-33 -25t-46 -9.5q-38 0 -57.5 15t-19.5 40q0 14 10.5 29.5t33.5 25.5t44 10q35 0 56.5 -16t21.5 -40zM245 793q0 -14 -10 -29.5t-33 -25t-46 -9.5q-38 0 -57.5 15t-19.5 40q0 14 10.5 29.5t33.5 25.5t44 10q35 0 56.5 -16t21.5 -40z
" />
    <glyph glyph-name="Igrave" unicode="&#xcc;" horiz-adv-x="369" 
d="M329 614q0 -29 -8.5 -269t-9.5 -289q0 -20 -8 -34.5t-39 -19.5q-29 -5 -86.5 -11t-78.5 -6q-31 0 -42.5 17t-11.5 43q0 107 -2.5 322.5t-2.5 226.5q0 35 13 51.5t44 20.5q133 16 181 16q20 0 35.5 -15t15.5 -53zM317 754q0 -11 -6 -23q-9 -15 -19 -15q-11 0 -118 31
q-78 23 -88 28q-23 10 -23 28q0 16 8 40q4 14 12.5 29t18.5 15q5 0 15 -4t44 -22.5t50 -27.5q90 -50 96 -55q10 -7 10 -24z" />
    <glyph glyph-name="Iacute" unicode="&#xcd;" horiz-adv-x="369" 
d="M329 614q0 -29 -8.5 -269t-9.5 -289q0 -20 -8 -34.5t-39 -19.5q-29 -5 -86.5 -11t-78.5 -6q-31 0 -42.5 17t-11.5 43q0 107 -2.5 322.5t-2.5 226.5q0 35 13 51.5t44 20.5q133 16 181 16q20 0 35.5 -15t15.5 -53zM305 803q0 -18 -23 -28q-10 -5 -88 -28q-107 -31 -118 -31
q-10 0 -19 15q-6 12 -6 23q0 17 10 24q6 5 96 55q12 7 55 30.5t54 23.5q10 0 18.5 -15t12.5 -29q8 -24 8 -40z" />
    <glyph glyph-name="Icircumflex" unicode="&#xce;" horiz-adv-x="369" 
d="M329 614q0 -29 -8.5 -269t-9.5 -289q0 -20 -8 -34.5t-39 -19.5q-29 -5 -86.5 -11t-78.5 -6q-31 0 -42.5 17t-11.5 43q0 107 -2.5 322.5t-2.5 226.5q0 35 13 51.5t44 20.5q133 16 181 16q20 0 35.5 -15t15.5 -53zM367 758q0 -9 -10 -24q-15 -20 -22 -20t-32 12
q-89 48 -117 57q-27 -8 -121 -58q-22 -11 -28 -11q-3 0 -10.5 6t-11.5 12q-11 17 -11 30q0 9 15 21l60 50q17 14 41 30.5t28 18.5q6 3 37 3q32 0 38 -3q10 -5 68 -49q16 -12 39.5 -32t27.5 -24q3 -3 6 -9.5t3 -9.5z" />
    <glyph glyph-name="Idieresis" unicode="&#xcf;" horiz-adv-x="369" 
d="M329 614q0 -29 -8.5 -269t-9.5 -289q0 -20 -8 -34.5t-39 -19.5q-29 -5 -86.5 -11t-78.5 -6q-31 0 -42.5 17t-11.5 43q0 107 -2.5 322.5t-2.5 226.5q0 35 13 51.5t44 20.5q133 16 181 16q20 0 35.5 -15t15.5 -53zM399 793q0 -14 -10 -29.5t-33 -25t-46 -9.5
q-38 0 -57.5 15t-19.5 40q0 14 10.5 29.5t33.5 25.5t44 10q35 0 56.5 -16t21.5 -40zM127 793q0 -14 -10 -29.5t-33 -25t-46 -9.5q-38 0 -57.5 15t-19.5 40q0 14 10.5 29.5t33.5 25.5t44 10q35 0 56.5 -16t21.5 -40z" />
    <glyph glyph-name="Eth" unicode="&#xd0;" horiz-adv-x="807" 
d="M783 346q0 -80 -31.5 -146t-91 -112.5t-144.5 -71.5t-188 -25q-50 0 -119 3.5t-86 6.5q-19 3 -30 12t-11 42l-2 237l-34 -2q-36 0 -36 33q0 17 6.5 30t30.5 14l31 2q-3 117 -3 198q0 47 12 63.5t58 29.5q30 9 111 14.5t157 5.5q84 0 153 -20t117 -61.5t74 -105t26 -147.5
zM502 344q0 73 -9.5 126.5t-33.5 83t-73 29.5q-9 0 -25 -4l-5 -190l43 2q16 0 26.5 -6.5t10.5 -34.5q0 -14 -7 -25t-32 -13l-42 -3l-8 -218q37 0 65.5 14t48.5 43.5t30.5 78.5t10.5 117z" />
    <glyph glyph-name="Ntilde" unicode="&#xd1;" horiz-adv-x="664" 
d="M624 638q0 -73 -5 -278.5t-10 -304.5q-1 -17 -7.5 -28.5t-29.5 -17.5q-20 -5 -57.5 -11t-58.5 -6q-8 0 -18.5 4.5t-34.5 34.5l-239 310q4 -87 12.5 -194t8.5 -110q0 -15 -8 -25.5t-20 -12.5q-35 -7 -73 -7q-18 0 -26.5 9.5t-8.5 34.5q0 7 -4.5 254.5t-4.5 311.5
q0 18 4 32.5t14.5 21.5t33.5 12q19 4 53 9t50 5q12 0 23 -3t20 -11.5t29 -32.5l225 -266q1 62 0.5 114.5t-2.5 95.5t-2 48q0 19 9 29t21 13q9 2 36.5 4t40.5 2q29 0 29 -37zM520 806q0 -4 -16 -24.5t-45 -43t-60 -22.5q-13 0 -31 3t-49 20q-18 10 -31 15t-29 5
q-8 0 -15.5 -6t-16 -19t-11.5 -13q-6 0 -15 4.5t-16 11.5q-18 18 -18 27q0 7 20 34t45 42.5t48 15.5q48 0 84 -21q2 -1 22 -14t35 -13q9 0 18 6.5t19.5 21.5t13.5 15q12 0 30 -17l11 -11t7 -17z" />
    <glyph glyph-name="Ograve" unicode="&#xd2;" horiz-adv-x="789" 
d="M765 366q0 -84 -29.5 -154t-83.5 -119.5t-127 -75.5t-156 -26q-71 0 -134.5 21.5t-110.5 64t-73.5 105t-26.5 139.5q0 57 18 110t50 95.5t84 79.5t117.5 54.5t123.5 17.5q32 0 74 -6.5t86.5 -25t87.5 -53.5t71.5 -94.5t28.5 -132.5zM484 349q0 104 -18 165.5t-66 61.5
q-96 0 -96 -237q0 -127 19 -186t64 -59q17 0 35.5 10.5t31.5 36t21.5 68t8.5 140.5zM534 754q0 -11 -6 -23q-9 -15 -19 -15q-11 0 -118 31q-78 23 -88 28q-23 10 -23 28q0 16 8 40q4 14 12.5 29t18.5 15q5 0 15 -4t44 -22.5t50 -27.5q90 -50 96 -55q10 -7 10 -24z" />
    <glyph glyph-name="Oacute" unicode="&#xd3;" horiz-adv-x="789" 
d="M765 366q0 -84 -29.5 -154t-83.5 -119.5t-127 -75.5t-156 -26q-71 0 -134.5 21.5t-110.5 64t-73.5 105t-26.5 139.5q0 57 18 110t50 95.5t84 79.5t117.5 54.5t123.5 17.5q32 0 74 -6.5t86.5 -25t87.5 -53.5t71.5 -94.5t28.5 -132.5zM484 349q0 104 -18 165.5t-66 61.5
q-96 0 -96 -237q0 -127 19 -186t64 -59q17 0 35.5 10.5t31.5 36t21.5 68t8.5 140.5zM552 803q0 -18 -23 -28q-10 -5 -88 -28q-107 -31 -118 -31q-10 0 -19 15q-6 12 -6 23q0 17 10 24q6 5 96 55q12 7 55 30.5t54 23.5q10 0 18.5 -15t12.5 -29q8 -24 8 -40z" />
    <glyph glyph-name="Ocircumflex" unicode="&#xd4;" horiz-adv-x="789" 
d="M765 366q0 -84 -29.5 -154t-83.5 -119.5t-127 -75.5t-156 -26q-71 0 -134.5 21.5t-110.5 64t-73.5 105t-26.5 139.5q0 57 18 110t50 95.5t84 79.5t117.5 54.5t123.5 17.5q32 0 74 -6.5t86.5 -25t87.5 -53.5t71.5 -94.5t28.5 -132.5zM484 349q0 104 -18 165.5t-66 61.5
q-96 0 -96 -237q0 -127 19 -186t64 -59q17 0 35.5 10.5t31.5 36t21.5 68t8.5 140.5zM599 758q0 -9 -10 -24q-15 -20 -22 -20t-32 12q-89 48 -117 57q-27 -8 -121 -58q-22 -11 -28 -11q-3 0 -10.5 6t-11.5 12q-11 17 -11 30q0 9 15 21l60 50q17 14 41 30.5t28 18.5q6 3 37 3
q32 0 38 -3q10 -5 68 -49q16 -12 39.5 -32t27.5 -24q3 -3 6 -9.5t3 -9.5z" />
    <glyph glyph-name="Otilde" unicode="&#xd5;" horiz-adv-x="789" 
d="M765 366q0 -84 -29.5 -154t-83.5 -119.5t-127 -75.5t-156 -26q-71 0 -134.5 21.5t-110.5 64t-73.5 105t-26.5 139.5q0 57 18 110t50 95.5t84 79.5t117.5 54.5t123.5 17.5q32 0 74 -6.5t86.5 -25t87.5 -53.5t71.5 -94.5t28.5 -132.5zM484 349q0 104 -18 165.5t-66 61.5
q-96 0 -96 -237q0 -127 19 -186t64 -59q17 0 35.5 10.5t31.5 36t21.5 68t8.5 140.5zM573 806q0 -4 -16 -24.5t-45 -43t-60 -22.5q-13 0 -31 3t-49 20q-18 10 -31 15t-29 5q-8 0 -15.5 -6t-16 -19t-11.5 -13q-6 0 -15 4.5t-16 11.5q-18 18 -18 27q0 7 20 34t45 42.5t48 15.5
q48 0 84 -21q2 -1 22 -14t35 -13q9 0 18 6.5t19.5 21.5t13.5 15q12 0 30 -17l11 -11t7 -17z" />
    <glyph glyph-name="Odieresis" unicode="&#xd6;" horiz-adv-x="789" 
d="M765 366q0 -84 -29.5 -154t-83.5 -119.5t-127 -75.5t-156 -26q-71 0 -134.5 21.5t-110.5 64t-73.5 105t-26.5 139.5q0 57 18 110t50 95.5t84 79.5t117.5 54.5t123.5 17.5q32 0 74 -6.5t86.5 -25t87.5 -53.5t71.5 -94.5t28.5 -132.5zM484 349q0 104 -18 165.5t-66 61.5
q-96 0 -96 -237q0 -127 19 -186t64 -59q17 0 35.5 10.5t31.5 36t21.5 68t8.5 140.5zM629 793q0 -14 -10 -29.5t-33 -25t-46 -9.5q-38 0 -57.5 15t-19.5 40q0 14 10.5 29.5t33.5 25.5t44 10q35 0 56.5 -16t21.5 -40zM357 793q0 -14 -10 -29.5t-33 -25t-46 -9.5
q-38 0 -57.5 15t-19.5 40q0 14 10.5 29.5t33.5 25.5t44 10q35 0 56.5 -16t21.5 -40z" />
    <glyph glyph-name="multiply" unicode="&#xd7;" horiz-adv-x="497" 
d="M437 133q0 -20 -22 -42q-20 -20 -39 -20q-13 0 -22 9l-108 111l-91 -102q-10 -10 -24 -10q-21 0 -38 17q-27 27 -27 45q0 13 12 27l90 102l-95 96q-13 13 -13 29q0 20 19 39q28 28 46 28q13 0 23 -10l94 -97l99 111q11 11 26 11q19 0 44 -25q20 -20 20 -42q0 -12 -11 -25
l-101 -110l107 -111q11 -12 11 -31z" />
    <glyph glyph-name="Oslash" unicode="&#xd8;" horiz-adv-x="760" 
d="M736 366q0 -84 -28 -154t-79 -119.5t-122 -75.5t-154 -26q-77 0 -140 24l-38 -64q-13 -19 -26 -19q-8 0 -21 8q-23 16 -23 32q0 7 9 23l32 54q-27 19 -55.5 54t-47.5 92.5t-19 132.5q0 77 28.5 142.5t80 111.5t121 71t148.5 25q53 0 106 -14l52 87q15 20 25 20
q11 0 29 -12t18 -28q0 -12 -9 -26l-41 -69q32 -17 61.5 -43.5t50 -61t31.5 -76.5t11 -89zM290 293l148 251q-20 33 -53 33q-96 -1 -96 -237zM469 350q0 38 -4 88l-161 -270q18 -71 68 -73q17 0 35.5 10t31.5 35.5t21.5 68t8.5 141.5z" />
    <glyph glyph-name="Ugrave" unicode="&#xd9;" horiz-adv-x="735" 
d="M695 613q0 -21 -1 -70.5t-6.5 -189.5t-6.5 -182q-1 -54 -10.5 -78t-54.5 -45q-74 -35 -133 -46t-121 -11q-78 0 -137 18t-97.5 50.5t-59 77t-23.5 97.5q-2 32 -6 176t-4 180q0 30 11 50t43 25q98 16 174 16q56 0 54 -66q-11 -370 -11 -386q0 -61 18.5 -91.5t62.5 -30.5
q31 0 55 15l-9 471q0 33 15 48.5t53 22.5q30 6 73.5 12t69.5 6q23 0 37 -13.5t14 -55.5zM486 754q0 -11 -6 -23q-9 -15 -19 -15q-11 0 -118 31q-78 23 -88 28q-23 10 -23 28q0 16 8 40q4 14 12.5 29t18.5 15q5 0 15 -4t44 -22.5t50 -27.5q90 -50 96 -55q10 -7 10 -24z" />
    <glyph glyph-name="Uacute" unicode="&#xda;" horiz-adv-x="735" 
d="M695 613q0 -21 -1 -70.5t-6.5 -189.5t-6.5 -182q-1 -54 -10.5 -78t-54.5 -45q-74 -35 -133 -46t-121 -11q-78 0 -137 18t-97.5 50.5t-59 77t-23.5 97.5q-2 32 -6 176t-4 180q0 30 11 50t43 25q98 16 174 16q56 0 54 -66q-11 -370 -11 -386q0 -61 18.5 -91.5t62.5 -30.5
q31 0 55 15l-9 471q0 33 15 48.5t53 22.5q30 6 73.5 12t69.5 6q23 0 37 -13.5t14 -55.5zM514 803q0 -18 -23 -28q-10 -5 -88 -28q-107 -31 -118 -31q-10 0 -19 15q-6 12 -6 23q0 17 10 24q6 5 96 55q12 7 55 30.5t54 23.5q10 0 18.5 -15t12.5 -29q8 -24 8 -40z" />
    <glyph glyph-name="Ucircumflex" unicode="&#xdb;" horiz-adv-x="735" 
d="M695 613q0 -21 -1 -70.5t-6.5 -189.5t-6.5 -182q-1 -54 -10.5 -78t-54.5 -45q-74 -35 -133 -46t-121 -11q-78 0 -137 18t-97.5 50.5t-59 77t-23.5 97.5q-2 32 -6 176t-4 180q0 30 11 50t43 25q98 16 174 16q56 0 54 -66q-11 -370 -11 -386q0 -61 18.5 -91.5t62.5 -30.5
q31 0 55 15l-9 471q0 33 15 48.5t53 22.5q30 6 73.5 12t69.5 6q23 0 37 -13.5t14 -55.5zM564 758q0 -9 -10 -24q-15 -20 -22 -20t-32 12q-89 48 -117 57q-27 -8 -121 -58q-22 -11 -28 -11q-3 0 -10.5 6t-11.5 12q-11 17 -11 30q0 9 15 21l60 50q17 14 41 30.5t28 18.5
q6 3 37 3q32 0 38 -3q10 -5 68 -49q16 -12 39.5 -32t27.5 -24q3 -3 6 -9.5t3 -9.5z" />
    <glyph glyph-name="Udieresis" unicode="&#xdc;" horiz-adv-x="735" 
d="M695 613q0 -21 -1 -70.5t-6.5 -189.5t-6.5 -182q-1 -54 -10.5 -78t-54.5 -45q-74 -35 -133 -46t-121 -11q-78 0 -137 18t-97.5 50.5t-59 77t-23.5 97.5q-2 32 -6 176t-4 180q0 30 11 50t43 25q98 16 174 16q56 0 54 -66q-11 -370 -11 -386q0 -61 18.5 -91.5t62.5 -30.5
q31 0 55 15l-9 471q0 33 15 48.5t53 22.5q30 6 73.5 12t69.5 6q23 0 37 -13.5t14 -55.5zM576 793q0 -14 -10 -29.5t-33 -25t-46 -9.5q-38 0 -57.5 15t-19.5 40q0 14 10.5 29.5t33.5 25.5t44 10q35 0 56.5 -16t21.5 -40zM304 793q0 -14 -10 -29.5t-33 -25t-46 -9.5
q-38 0 -57.5 15t-19.5 40q0 14 10.5 29.5t33.5 25.5t44 10q35 0 56.5 -16t21.5 -40z" />
    <glyph glyph-name="Yacute" unicode="&#xdd;" horiz-adv-x="700" 
d="M690 644q0 -36 -72 -177q-12 -23 -32 -56t-55.5 -83.5t-39.5 -56.5l-7 -213q-2 -56 -50 -62q-35 -4 -88 -8t-79 -4q-49 0 -49 58l-1 229q-110 139 -186 295q-9 17 -15 36.5t-6 29.5q0 12 9.5 21t39.5 13q40 5 102 9.5t94 4.5q23 0 40 -7.5t25 -34.5q41 -144 101 -247
q35 50 68 112.5t53 124.5q9 26 17.5 42t26.5 16q11 0 41.5 -6t40.5 -10q11 -4 16.5 -9.5t5.5 -16.5zM552 803q0 -18 -23 -28q-10 -5 -88 -28q-107 -31 -118 -31q-10 0 -19 15q-6 12 -6 23q0 17 10 24q6 5 96 55q12 7 55 30.5t54 23.5q10 0 18.5 -15t12.5 -29q8 -24 8 -40z
" />
    <glyph glyph-name="Thorn" unicode="&#xde;" horiz-adv-x="730" 
d="M706 369q0 -58 -26.5 -103t-77.5 -76.5t-124.5 -50t-165.5 -24.5l-1 -51q0 -20 -8 -34.5t-39 -19.5q-29 -5 -86.5 -11t-78.5 -6q-31 0 -42.5 17t-11.5 43q0 107 -2.5 318.5t-2.5 222.5q0 35 13 51.5t44 20.5q133 16 181 16q20 0 35.5 -15t15.5 -53l-1 -56l43 1
q183 0 259 -47.5t76 -142.5zM439 352q0 34 -5 57t-14.5 35.5t-24.5 19t-71 4.5l-8 -255q50 8 75 21.5t36.5 41t11.5 76.5z" />
    <glyph glyph-name="germandbls" unicode="&#xdf;" horiz-adv-x="761" 
d="M741 176q0 -39 -18.5 -74t-52.5 -60t-79.5 -39t-97.5 -14q-60 0 -101 13.5t-41 34.5q0 28 4.5 40.5t18.5 12.5q9 0 36 -7.5t51 -7.5q26 0 46 15t20 42q0 21 -13 42.5t-54 50t-55.5 40t-25.5 25t-17 28.5t-6 34q0 15 8 33.5t59 70.5q44 46 44 88q0 34 -18 51t-56 17
q-36 0 -53.5 -24t-18.5 -75q-4 -219 -6 -448q0 -22 -8.5 -37t-43.5 -23q-84 -19 -127 -19q-35 0 -47.5 19t-12.5 48l-3 261l-25 -1q-38 0 -38 35q0 18 7 31.5t33 14.5l22 2v59q0 54 19 100.5t57.5 80t96.5 52t132 18.5q137 0 197.5 -32t60.5 -107q0 -19 -6 -39t-20 -36.5
t-38 -37.5q-17 -15 -28 -27t-11 -21q0 -3 6.5 -8t55.5 -26q69 -30 108 -80t39 -116z" />
    <glyph glyph-name="agrave" unicode="&#xe0;" horiz-adv-x="641" 
d="M606 388q0 -10 -3 -140.5t-3 -190.5q0 -22 -8 -37t-43 -23q-69 -16 -104 -16q-44 0 -55 44q-32 -16 -62.5 -25t-77.5 -9q-48 0 -90.5 13.5t-73.5 40t-48.5 65.5t-17.5 88q0 39 17 80t55.5 74.5t97.5 55.5t130 22q94 0 148 -32q19 13 47.5 24.5t51.5 11.5q16 0 27.5 -8
t11.5 -38zM373 95l-2 256q-12 5 -31 5q-41 0 -58.5 -32.5t-17.5 -96.5q0 -144 65 -144q28 0 44 12zM446 542q0 -11 -6 -23q-9 -15 -19 -15q-11 0 -118 31q-78 23 -88 28q-23 10 -23 28q0 16 8 40q4 14 12.5 29t18.5 15q5 0 15 -4t44 -22.5t50 -27.5q90 -50 96 -55
q10 -7 10 -24z" />
    <glyph glyph-name="aacute" unicode="&#xe1;" horiz-adv-x="641" 
d="M606 388q0 -10 -3 -140.5t-3 -190.5q0 -22 -8 -37t-43 -23q-69 -16 -104 -16q-44 0 -55 44q-32 -16 -62.5 -25t-77.5 -9q-48 0 -90.5 13.5t-73.5 40t-48.5 65.5t-17.5 88q0 39 17 80t55.5 74.5t97.5 55.5t130 22q94 0 148 -32q19 13 47.5 24.5t51.5 11.5q16 0 27.5 -8
t11.5 -38zM373 95l-2 256q-12 5 -31 5q-41 0 -58.5 -32.5t-17.5 -96.5q0 -144 65 -144q28 0 44 12zM446 591q0 -18 -23 -28q-10 -5 -88 -28q-107 -31 -118 -31q-10 0 -19 15q-6 12 -6 23q0 17 10 24q6 5 96 55q12 7 55 30.5t54 23.5q10 0 18.5 -15t12.5 -29q8 -24 8 -40z
" />
    <glyph glyph-name="acircumflex" unicode="&#xe2;" horiz-adv-x="641" 
d="M606 388q0 -10 -3 -140.5t-3 -190.5q0 -22 -8 -37t-43 -23q-69 -16 -104 -16q-44 0 -55 44q-32 -16 -62.5 -25t-77.5 -9q-48 0 -90.5 13.5t-73.5 40t-48.5 65.5t-17.5 88q0 39 17 80t55.5 74.5t97.5 55.5t130 22q94 0 148 -32q19 13 47.5 24.5t51.5 11.5q16 0 27.5 -8
t11.5 -38zM373 95l-2 256q-12 5 -31 5q-41 0 -58.5 -32.5t-17.5 -96.5q0 -144 65 -144q28 0 44 12zM500 548q0 -9 -10 -24q-15 -20 -22 -20t-32 12q-89 48 -117 57q-27 -8 -121 -58q-22 -11 -28 -11q-3 0 -10.5 6t-11.5 12q-11 17 -11 30q0 9 15 21l60 50q17 14 41 30.5
t28 18.5q6 3 37 3q32 0 38 -3q10 -5 68 -49q16 -12 39.5 -32t27.5 -24q3 -3 6 -9.5t3 -9.5z" />
    <glyph glyph-name="atilde" unicode="&#xe3;" horiz-adv-x="641" 
d="M606 388q0 -10 -3 -140.5t-3 -190.5q0 -22 -8 -37t-43 -23q-69 -16 -104 -16q-44 0 -55 44q-32 -16 -62.5 -25t-77.5 -9q-48 0 -90.5 13.5t-73.5 40t-48.5 65.5t-17.5 88q0 39 17 80t55.5 74.5t97.5 55.5t130 22q94 0 148 -32q19 13 47.5 24.5t51.5 11.5q16 0 27.5 -8
t11.5 -38zM373 95l-2 256q-12 5 -31 5q-41 0 -58.5 -32.5t-17.5 -96.5q0 -144 65 -144q28 0 44 12zM496 600q0 -4 -16 -24.5t-45 -43t-60 -22.5q-13 0 -31 3t-49 20q-18 10 -31 15t-29 5q-8 0 -15.5 -6t-16 -19t-11.5 -13q-6 0 -15 4.5t-16 11.5q-18 18 -18 27q0 7 20 34
t45 42.5t48 15.5q48 0 84 -21q2 -1 22 -14t35 -13q9 0 18 6.5t19.5 21.5t13.5 15q12 0 30 -17l11 -11t7 -17z" />
    <glyph glyph-name="adieresis" unicode="&#xe4;" horiz-adv-x="641" 
d="M606 388q0 -10 -3 -140.5t-3 -190.5q0 -22 -8 -37t-43 -23q-69 -16 -104 -16q-44 0 -55 44q-32 -16 -62.5 -25t-77.5 -9q-48 0 -90.5 13.5t-73.5 40t-48.5 65.5t-17.5 88q0 39 17 80t55.5 74.5t97.5 55.5t130 22q94 0 148 -32q19 13 47.5 24.5t51.5 11.5q16 0 27.5 -8
t11.5 -38zM373 95l-2 256q-12 5 -31 5q-41 0 -58.5 -32.5t-17.5 -96.5q0 -144 65 -144q28 0 44 12zM538 582q0 -14 -10 -29.5t-33 -25t-46 -9.5q-38 0 -57.5 15t-19.5 40q0 14 10.5 29.5t33.5 25.5t44 10q35 0 56.5 -16t21.5 -40zM266 582q0 -14 -10 -29.5t-33 -25t-46 -9.5
q-38 0 -57.5 15t-19.5 40q0 14 10.5 29.5t33.5 25.5t44 10q35 0 56.5 -16t21.5 -40z" />
    <glyph glyph-name="aring" unicode="&#xe5;" horiz-adv-x="641" 
d="M606 388q0 -10 -3 -140.5t-3 -190.5q0 -22 -8 -37t-43 -23q-69 -16 -104 -16q-44 0 -55 44q-32 -16 -62.5 -25t-77.5 -9q-48 0 -90.5 13.5t-73.5 40t-48.5 65.5t-17.5 88q0 39 17 80t55.5 74.5t97.5 55.5t130 22q94 0 148 -32q19 13 47.5 24.5t51.5 11.5q16 0 27.5 -8
t11.5 -38zM373 95l-2 256q-12 5 -31 5q-41 0 -58.5 -32.5t-17.5 -96.5q0 -144 65 -144q28 0 44 12zM446 578q0 -22 -11.5 -47.5t-40 -43t-61.5 -17.5q-22 0 -48.5 10.5t-45 37t-18.5 58.5q0 21 11 46.5t39 44t63 18.5q23 0 49.5 -11t44.5 -38t18 -58zM383 578q0 20 -13 36
t-37 16q-22 0 -35.5 -16.5t-13.5 -37.5q0 -22 14.5 -36.5t35.5 -14.5t35 15.5t14 37.5z" />
    <glyph glyph-name="ae" unicode="&#xe6;" horiz-adv-x="920" 
d="M908 299q0 -21 -11 -45t-40.5 -47t-83.5 -42.5t-137 -28.5q6 -26 27.5 -39.5t53.5 -13.5q33 0 74.5 11.5t50.5 11.5q10 0 17.5 -5.5t7.5 -30.5q0 -15 -6.5 -28t-18.5 -19q-26 -14 -81.5 -22.5t-128.5 -8.5q-115 0 -186 53q-44 -29 -94.5 -41.5t-114.5 -12.5
q-104 0 -160.5 52.5t-56.5 156.5q0 39 16.5 80t60 78.5t105.5 55.5t119 18q100 0 194 -6q19 -2 28.5 -9t11.5 -24q31 15 71.5 25.5t85.5 10.5q196 0 196 -130zM757 305q0 24 -12.5 38.5t-33.5 14.5q-35 0 -56.5 -25.5t-27.5 -93.5l-1 -25q42 5 73.5 18.5t44.5 32.5t13 40z
M398 103q-9 20 -15 50t-6 56l-1 135q-12 5 -31 5q-76 0 -76 -129q0 -62 13.5 -99.5t51.5 -37.5q14 0 35 7t29 13z" />
    <glyph glyph-name="ccedilla" unicode="&#xe7;" horiz-adv-x="497" 
d="M477 71q0 -16 -7 -29.5t-16 -17.5q-61 -30 -171 -30l-35 -49q14 3 45 3q55 0 85.5 -15.5t30.5 -44.5q0 -39 -43.5 -63.5t-122.5 -24.5q-11 0 -41.5 2.5t-57.5 12.5q-1 1 -4.5 4t-3.5 11q0 11 7.5 20t16.5 9q4 0 26 -5t46 -5t37 7t13 20q0 24 -41 24q-13 0 -29.5 -3.5
t-20.5 -3.5q-7 0 -14.5 6.5t-7.5 14.5t6 16l50 67q-42 5 -79 19.5t-65.5 38t-44.5 58.5t-16 80q0 48 19 92.5t62 76.5t106.5 49t147.5 17q31 0 66 -5q21 -3 33.5 -10.5t12.5 -36.5q0 -18 -8.5 -27t-20.5 -9l-50 4q-118 0 -118 -130q0 -42 16 -71.5t40 -40t45 -10.5
q25 0 50 7t30 7q26 2 26 -35z" />
    <glyph glyph-name="egrave" unicode="&#xe8;" horiz-adv-x="580" 
d="M568 299q0 -44 -35.5 -77.5t-98 -55t-151.5 -30.5q6 -26 29.5 -39.5t56.5 -13.5t74.5 11.5t50.5 11.5q10 0 17.5 -5.5t7.5 -30.5q0 -15 -6.5 -28t-18.5 -19q-26 -14 -83.5 -22.5t-124.5 -8.5q-127 0 -196.5 54t-69.5 143q0 48 17.5 87.5t48 67t70 45.5t90.5 29t110 11
t110 -10.5t76.5 -40t25.5 -79.5zM401 306q0 24 -13.5 38t-34.5 14q-34 0 -54.5 -25t-27.5 -94l-1 -25q58 6 94.5 29.5t36.5 62.5zM446 542q0 -11 -6 -23q-9 -15 -19 -15q-11 0 -118 31q-78 23 -88 28q-23 10 -23 28q0 16 8 40q4 14 12.5 29t18.5 15q5 0 15 -4t44 -22.5
t50 -27.5q90 -50 96 -55q10 -7 10 -24z" />
    <glyph glyph-name="eacute" unicode="&#xe9;" horiz-adv-x="580" 
d="M568 299q0 -44 -35.5 -77.5t-98 -55t-151.5 -30.5q6 -26 29.5 -39.5t56.5 -13.5t74.5 11.5t50.5 11.5q10 0 17.5 -5.5t7.5 -30.5q0 -15 -6.5 -28t-18.5 -19q-26 -14 -83.5 -22.5t-124.5 -8.5q-127 0 -196.5 54t-69.5 143q0 48 17.5 87.5t48 67t70 45.5t90.5 29t110 11
t110 -10.5t76.5 -40t25.5 -79.5zM401 306q0 24 -13.5 38t-34.5 14q-34 0 -54.5 -25t-27.5 -94l-1 -25q58 6 94.5 29.5t36.5 62.5zM446 591q0 -18 -23 -28q-10 -5 -88 -28q-107 -31 -118 -31q-10 0 -19 15q-6 12 -6 23q0 17 10 24q6 5 96 55q12 7 55 30.5t54 23.5
q10 0 18.5 -15t12.5 -29q8 -24 8 -40z" />
    <glyph glyph-name="ecircumflex" unicode="&#xea;" horiz-adv-x="580" 
d="M568 299q0 -44 -35.5 -77.5t-98 -55t-151.5 -30.5q6 -26 29.5 -39.5t56.5 -13.5t74.5 11.5t50.5 11.5q10 0 17.5 -5.5t7.5 -30.5q0 -15 -6.5 -28t-18.5 -19q-26 -14 -83.5 -22.5t-124.5 -8.5q-127 0 -196.5 54t-69.5 143q0 48 17.5 87.5t48 67t70 45.5t90.5 29t110 11
t110 -10.5t76.5 -40t25.5 -79.5zM401 306q0 24 -13.5 38t-34.5 14q-34 0 -54.5 -25t-27.5 -94l-1 -25q58 6 94.5 29.5t36.5 62.5zM500 548q0 -9 -10 -24q-15 -20 -22 -20t-32 12q-89 48 -117 57q-27 -8 -121 -58q-22 -11 -28 -11q-3 0 -10.5 6t-11.5 12q-11 17 -11 30
q0 9 15 21l60 50q17 14 41 30.5t28 18.5q6 3 37 3q32 0 38 -3q10 -5 68 -49q16 -12 39.5 -32t27.5 -24q3 -3 6 -9.5t3 -9.5z" />
    <glyph glyph-name="edieresis" unicode="&#xeb;" horiz-adv-x="580" 
d="M568 299q0 -44 -35.5 -77.5t-98 -55t-151.5 -30.5q6 -26 29.5 -39.5t56.5 -13.5t74.5 11.5t50.5 11.5q10 0 17.5 -5.5t7.5 -30.5q0 -15 -6.5 -28t-18.5 -19q-26 -14 -83.5 -22.5t-124.5 -8.5q-127 0 -196.5 54t-69.5 143q0 48 17.5 87.5t48 67t70 45.5t90.5 29t110 11
t110 -10.5t76.5 -40t25.5 -79.5zM401 306q0 24 -13.5 38t-34.5 14q-34 0 -54.5 -25t-27.5 -94l-1 -25q58 6 94.5 29.5t36.5 62.5zM538 582q0 -14 -10 -29.5t-33 -25t-46 -9.5q-38 0 -57.5 15t-19.5 40q0 14 10.5 29.5t33.5 25.5t44 10q35 0 56.5 -16t21.5 -40zM266 582
q0 -14 -10 -29.5t-33 -25t-46 -9.5q-38 0 -57.5 15t-19.5 40q0 14 10.5 29.5t33.5 25.5t44 10q35 0 56.5 -16t21.5 -40z" />
    <glyph glyph-name="igrave" unicode="&#xec;" horiz-adv-x="311" 
d="M276 365q0 -9 -3 -123.5t-4 -174.5q0 -30 -12 -42.5t-40 -17.5q-76 -13 -117 -13q-35 0 -47.5 19t-12.5 48q0 59 -2.5 159t-2.5 114q0 38 14.5 56t49.5 24q85 16 134 16q20 0 31.5 -11.5t11.5 -53.5zM279 542q0 -11 -6 -23q-9 -15 -19 -15q-11 0 -118 31q-78 23 -88 28
q-23 10 -23 28q0 16 8 40q4 14 12.5 29t18.5 15q5 0 15 -4t44 -22.5t50 -27.5q90 -50 96 -55q10 -7 10 -24z" />
    <glyph glyph-name="iacute" unicode="&#xed;" horiz-adv-x="311" 
d="M276 365q0 -9 -3 -123.5t-4 -174.5q0 -30 -12 -42.5t-40 -17.5q-76 -13 -117 -13q-35 0 -47.5 19t-12.5 48q0 59 -2.5 159t-2.5 114q0 38 14.5 56t49.5 24q85 16 134 16q20 0 31.5 -11.5t11.5 -53.5zM285 591q0 -18 -23 -28q-10 -5 -88 -28q-107 -31 -118 -31
q-10 0 -19 15q-6 12 -6 23q0 17 10 24q6 5 96 55q12 7 55 30.5t54 23.5q10 0 18.5 -15t12.5 -29q8 -24 8 -40z" />
    <glyph glyph-name="icircumflex" unicode="&#xee;" horiz-adv-x="311" 
d="M276 365q0 -9 -3 -123.5t-4 -174.5q0 -30 -12 -42.5t-40 -17.5q-76 -13 -117 -13q-35 0 -47.5 19t-12.5 48q0 59 -2.5 159t-2.5 114q0 38 14.5 56t49.5 24q85 16 134 16q20 0 31.5 -11.5t11.5 -53.5zM337 548q0 -9 -10 -24q-15 -20 -22 -20t-32 12q-89 48 -117 57
q-27 -8 -121 -58q-22 -11 -28 -11q-3 0 -10.5 6t-11.5 12q-11 17 -11 30q0 9 15 21l60 50q17 14 41 30.5t28 18.5q6 3 37 3q32 0 38 -3q10 -5 68 -49q16 -12 39.5 -32t27.5 -24q3 -3 6 -9.5t3 -9.5z" />
    <glyph glyph-name="idieresis" unicode="&#xef;" horiz-adv-x="311" 
d="M276 365q0 -9 -3 -123.5t-4 -174.5q0 -30 -12 -42.5t-40 -17.5q-76 -13 -117 -13q-35 0 -47.5 19t-12.5 48q0 59 -2.5 159t-2.5 114q0 38 14.5 56t49.5 24q85 16 134 16q20 0 31.5 -11.5t11.5 -53.5zM383 582q0 -14 -10 -29.5t-33 -25t-46 -9.5q-38 0 -57.5 15t-19.5 40
q0 14 10.5 29.5t33.5 25.5t44 10q35 0 56.5 -16t21.5 -40zM111 582q0 -14 -10 -29.5t-33 -25t-46 -9.5q-38 0 -57.5 15t-19.5 40q0 14 10.5 29.5t33.5 25.5t44 10q35 0 56.5 -16t21.5 -40z" />
    <glyph glyph-name="eth" unicode="&#xf0;" horiz-adv-x="672" 
d="M652 237q0 -61 -25.5 -108.5t-70.5 -78t-106 -46t-130 -15.5q-64 0 -118.5 12.5t-95.5 38t-63.5 65t-22.5 90.5q0 59 26 104t71.5 74t105.5 43t127 14h18q-7 24 -27.5 54t-41.5 52l-34 -39q-18 -18 -24 -18q-11 0 -27 16q-2 2 -11 10.5t-9 16.5q0 13 17 32l27 32
q-42 24 -84 29q-26 3 -26 21l1 22q3 15 9 23t33 8q73 0 140 -18l42 50l8.5 8.5t13.5 7.5q7 0 17 -5t18 -13q15 -15 15 -27t-16 -30l-17 -20q56 -26 104 -67.5t83 -94t54 -115t19 -128.5zM406 211q0 73 -14 109.5t-52 36.5q-15 0 -31.5 -12.5t-27 -49.5t-10.5 -90
q0 -76 13.5 -110t51.5 -34q20 0 36.5 19t25 51.5t8.5 79.5z" />
    <glyph glyph-name="ntilde" unicode="&#xf1;" horiz-adv-x="637" 
d="M602 275l-6 -213q0 -46 -45 -54q-81 -14 -121 -14q-35 0 -49.5 15t-14.5 55v175q0 27 -10 46t-41 19q-17 0 -39 -13l-7 -219q-1 -25 -8 -38.5t-45 -22.5q-64 -16 -113 -16q-31 0 -46.5 13.5t-16.5 87.5t-3 144.5t-2 90.5q0 33 12.5 52t40.5 26q32 8 72.5 15t65.5 7
q24 0 35 -14t11 -51q36 30 83.5 46t100.5 16q70 0 108 -34.5t38 -118.5zM496 600q0 -4 -16 -24.5t-45 -43t-60 -22.5q-13 0 -31 3t-49 20q-18 10 -31 15t-29 5q-8 0 -15.5 -6t-16 -19t-11.5 -13q-6 0 -15 4.5t-16 11.5q-18 18 -18 27q0 7 20 34t45 42.5t48 15.5q48 0 84 -21
q2 -1 22 -14t35 -13q9 0 18 6.5t19.5 21.5t13.5 15q12 0 30 -17l11 -11t7 -17z" />
    <glyph glyph-name="ograve" unicode="&#xf2;" horiz-adv-x="675" 
d="M655 223q0 -57 -26.5 -101.5t-72.5 -74t-107 -44t-129 -14.5q-64 0 -118.5 12.5t-95.5 38t-63.5 65t-22.5 90.5q0 59 26 104t71.5 74t105.5 43t127 14q63 0 118 -11t97 -35.5t66 -65t24 -95.5zM406 211q0 73 -14.5 109.5t-51.5 36.5q-15 0 -31.5 -13t-27 -49.5
t-10.5 -89.5q0 -75 14.5 -109.5t50.5 -34.5q12 0 28.5 11.5t29 47t12.5 91.5zM474 542q0 -11 -6 -23q-9 -15 -19 -15q-11 0 -118 31q-78 23 -88 28q-23 10 -23 28q0 16 8 40q4 14 12.5 29t18.5 15q5 0 15 -4t44 -22.5t50 -27.5q90 -50 96 -55q10 -7 10 -24z" />
    <glyph glyph-name="oacute" unicode="&#xf3;" horiz-adv-x="675" 
d="M655 223q0 -57 -26.5 -101.5t-72.5 -74t-107 -44t-129 -14.5q-64 0 -118.5 12.5t-95.5 38t-63.5 65t-22.5 90.5q0 59 26 104t71.5 74t105.5 43t127 14q63 0 118 -11t97 -35.5t66 -65t24 -95.5zM406 211q0 73 -14.5 109.5t-51.5 36.5q-15 0 -31.5 -13t-27 -49.5
t-10.5 -89.5q0 -75 14.5 -109.5t50.5 -34.5q12 0 28.5 11.5t29 47t12.5 91.5zM446 591q0 -18 -23 -28q-10 -5 -88 -28q-107 -31 -118 -31q-10 0 -19 15q-6 12 -6 23q0 17 10 24q6 5 96 55q12 7 55 30.5t54 23.5q10 0 18.5 -15t12.5 -29q8 -24 8 -40z" />
    <glyph glyph-name="ocircumflex" unicode="&#xf4;" horiz-adv-x="675" 
d="M655 223q0 -57 -26.5 -101.5t-72.5 -74t-107 -44t-129 -14.5q-64 0 -118.5 12.5t-95.5 38t-63.5 65t-22.5 90.5q0 59 26 104t71.5 74t105.5 43t127 14q63 0 118 -11t97 -35.5t66 -65t24 -95.5zM406 211q0 73 -14.5 109.5t-51.5 36.5q-15 0 -31.5 -13t-27 -49.5
t-10.5 -89.5q0 -75 14.5 -109.5t50.5 -34.5q12 0 28.5 11.5t29 47t12.5 91.5zM521 548q0 -9 -10 -24q-15 -20 -22 -20t-32 12q-89 48 -117 57q-27 -8 -121 -58q-22 -11 -28 -11q-3 0 -10.5 6t-11.5 12q-11 17 -11 30q0 9 15 21l60 50q17 14 41 30.5t28 18.5q6 3 37 3
q32 0 38 -3q10 -5 68 -49q16 -12 39.5 -32t27.5 -24q3 -3 6 -9.5t3 -9.5z" />
    <glyph glyph-name="otilde" unicode="&#xf5;" horiz-adv-x="675" 
d="M655 223q0 -57 -26.5 -101.5t-72.5 -74t-107 -44t-129 -14.5q-64 0 -118.5 12.5t-95.5 38t-63.5 65t-22.5 90.5q0 59 26 104t71.5 74t105.5 43t127 14q63 0 118 -11t97 -35.5t66 -65t24 -95.5zM406 211q0 73 -14.5 109.5t-51.5 36.5q-15 0 -31.5 -13t-27 -49.5
t-10.5 -89.5q0 -75 14.5 -109.5t50.5 -34.5q12 0 28.5 11.5t29 47t12.5 91.5zM510 600q0 -4 -16 -24.5t-45 -43t-60 -22.5q-13 0 -31 3t-49 20q-18 10 -31 15t-29 5q-8 0 -15.5 -6t-16 -19t-11.5 -13q-6 0 -15 4.5t-16 11.5q-18 18 -18 27q0 7 20 34t45 42.5t48 15.5
q48 0 84 -21q2 -1 22 -14t35 -13q9 0 18 6.5t19.5 21.5t13.5 15q12 0 30 -17l11 -11t7 -17z" />
    <glyph glyph-name="odieresis" unicode="&#xf6;" horiz-adv-x="675" 
d="M655 223q0 -57 -26.5 -101.5t-72.5 -74t-107 -44t-129 -14.5q-64 0 -118.5 12.5t-95.5 38t-63.5 65t-22.5 90.5q0 59 26 104t71.5 74t105.5 43t127 14q63 0 118 -11t97 -35.5t66 -65t24 -95.5zM406 211q0 73 -14.5 109.5t-51.5 36.5q-15 0 -31.5 -13t-27 -49.5
t-10.5 -89.5q0 -75 14.5 -109.5t50.5 -34.5q12 0 28.5 11.5t29 47t12.5 91.5zM551 582q0 -14 -10 -29.5t-33 -25t-46 -9.5q-38 0 -57.5 15t-19.5 40q0 14 10.5 29.5t33.5 25.5t44 10q35 0 56.5 -16t21.5 -40zM279 582q0 -14 -10 -29.5t-33 -25t-46 -9.5q-38 0 -57.5 15
t-19.5 40q0 14 10.5 29.5t33.5 25.5t44 10q35 0 56.5 -16t21.5 -40z" />
    <glyph glyph-name="divide" unicode="&#xf7;" horiz-adv-x="576" 
d="M388 455q0 -36 -30 -57.5t-65 -21.5q-40 0 -61.5 19.5t-21.5 49.5q0 17 11.5 36t36 31t47.5 12q37 0 60 -20t23 -49zM526 281q0 -22 -11 -37.5t-30 -16.5l-218 -14l-179 -11q-18 0 -28 15t-10 34q0 27 10 43.5t30 17.5l177 12l220 16q15 0 27 -12.5t12 -46.5zM388 108
q0 -36 -30 -57.5t-65 -21.5q-40 0 -61.5 19t-21.5 49q0 17 11.5 36t36 31t47.5 12q37 0 60 -19.5t23 -48.5z" />
    <glyph glyph-name="oslash" unicode="&#xf8;" horiz-adv-x="674" 
d="M654 223q0 -57 -26.5 -101.5t-72.5 -74t-107 -44t-129 -14.5q-64 0 -118 12l-55 -65q-12 -14 -24 -14q-13 0 -28 12q-19 16 -19 29q0 9 17 30l30 36q-102 55 -102 166q0 73 39 124.5t112.5 81t177.5 29.5q57 0 108 -9l60 74q16 16 24 16q16 0 34 -18q16 -16 16 -24
q0 -12 -17 -33l-33 -39q53 -24 83 -67.5t30 -106.5zM271 191l112 146q-19 20 -44 20q-32 0 -50 -40t-18 -112v-14zM405 211l-1 38l-121 -152q20 -36 52 -36q20 0 36.5 19t25 51.5t8.5 79.5z" />
    <glyph glyph-name="ugrave" unicode="&#xf9;" horiz-adv-x="631" 
d="M596 357l-6 -267q0 -34 -11 -54.5t-38 -25.5q-82 -15 -127 -15q-24 0 -37 14t-13 49q-79 -61 -189 -61q-68 0 -104 50.5t-36 135.5v180q0 46 45 54q25 4 64.5 8.5t62.5 4.5q35 0 49.5 -15t14.5 -55l-5 -171q0 -67 52 -67q25 0 44 13q1 30 -1 105.5t-2 107.5q0 29 12.5 43
t43.5 22q22 5 60.5 11t58.5 6q41 0 51.5 -13t10.5 -60zM446 542q0 -11 -6 -23q-9 -15 -19 -15q-11 0 -118 31q-78 23 -88 28q-23 10 -23 28q0 16 8 40q4 14 12.5 29t18.5 15q5 0 15 -4t44 -22.5t50 -27.5q90 -50 96 -55q10 -7 10 -24z" />
    <glyph glyph-name="uacute" unicode="&#xfa;" horiz-adv-x="631" 
d="M596 357l-6 -267q0 -34 -11 -54.5t-38 -25.5q-82 -15 -127 -15q-24 0 -37 14t-13 49q-79 -61 -189 -61q-68 0 -104 50.5t-36 135.5v180q0 46 45 54q25 4 64.5 8.5t62.5 4.5q35 0 49.5 -15t14.5 -55l-5 -171q0 -67 52 -67q25 0 44 13q1 30 -1 105.5t-2 107.5q0 29 12.5 43
t43.5 22q22 5 60.5 11t58.5 6q41 0 51.5 -13t10.5 -60zM446 591q0 -18 -23 -28q-10 -5 -88 -28q-107 -31 -118 -31q-10 0 -19 15q-6 12 -6 23q0 17 10 24q6 5 96 55q12 7 55 30.5t54 23.5q10 0 18.5 -15t12.5 -29q8 -24 8 -40z" />
    <glyph glyph-name="ucircumflex" unicode="&#xfb;" horiz-adv-x="631" 
d="M596 357l-6 -267q0 -34 -11 -54.5t-38 -25.5q-82 -15 -127 -15q-24 0 -37 14t-13 49q-79 -61 -189 -61q-68 0 -104 50.5t-36 135.5v180q0 46 45 54q25 4 64.5 8.5t62.5 4.5q35 0 49.5 -15t14.5 -55l-5 -171q0 -67 52 -67q25 0 44 13q1 30 -1 105.5t-2 107.5q0 29 12.5 43
t43.5 22q22 5 60.5 11t58.5 6q41 0 51.5 -13t10.5 -60zM500 548q0 -9 -10 -24q-15 -20 -22 -20t-32 12q-89 48 -117 57q-27 -8 -121 -58q-22 -11 -28 -11q-3 0 -10.5 6t-11.5 12q-11 17 -11 30q0 9 15 21l60 50q17 14 41 30.5t28 18.5q6 3 37 3q32 0 38 -3q10 -5 68 -49
q16 -12 39.5 -32t27.5 -24q3 -3 6 -9.5t3 -9.5z" />
    <glyph glyph-name="udieresis" unicode="&#xfc;" horiz-adv-x="631" 
d="M596 357l-6 -267q0 -34 -11 -54.5t-38 -25.5q-82 -15 -127 -15q-24 0 -37 14t-13 49q-79 -61 -189 -61q-68 0 -104 50.5t-36 135.5v180q0 46 45 54q25 4 64.5 8.5t62.5 4.5q35 0 49.5 -15t14.5 -55l-5 -171q0 -67 52 -67q25 0 44 13q1 30 -1 105.5t-2 107.5q0 29 12.5 43
t43.5 22q22 5 60.5 11t58.5 6q41 0 51.5 -13t10.5 -60zM538 582q0 -14 -10 -29.5t-33 -25t-46 -9.5q-38 0 -57.5 15t-19.5 40q0 14 10.5 29.5t33.5 25.5t44 10q35 0 56.5 -16t21.5 -40zM266 582q0 -14 -10 -29.5t-33 -25t-46 -9.5q-38 0 -57.5 15t-19.5 40q0 14 10.5 29.5
t33.5 25.5t44 10q35 0 56.5 -16t21.5 -40z" />
    <glyph glyph-name="yacute" unicode="&#xfd;" horiz-adv-x="626" 
d="M591 329q0 -77 -7 -264q-5 -137 -73 -201t-215 -64q-50 0 -72 13q-11 6 -14.5 16t-3.5 27q0 15 10.5 23t23.5 8q41 0 69.5 11t42.5 46t14 94q-28 -21 -66 -34.5t-110 -13.5q-68 0 -104 37.5t-41 127.5q0 3 -3.5 61.5t-5 93.5t-1.5 53q0 46 45 54q81 14 121 14
q36 0 50 -14t14 -56q0 -21 -2.5 -96.5t-1.5 -99.5q3 -65 60 -65q19 0 45 15q1 31 -1 126t-2 112q0 25 7.5 40.5t44.5 24.5q56 14 115 14q30 0 42 -10t15.5 -30.5t3.5 -62.5zM446 591q0 -18 -23 -28q-10 -5 -88 -28q-107 -31 -118 -31q-10 0 -19 15q-6 12 -6 23q0 17 10 24
q6 5 96 55q12 7 55 30.5t54 23.5q10 0 18.5 -15t12.5 -29q8 -24 8 -40z" />
    <glyph glyph-name="thorn" unicode="&#xfe;" horiz-adv-x="655" 
d="M635 230q0 -63 -27 -109.5t-75.5 -76t-115 -43.5t-145.5 -14q-5 -100 -5 -136q0 -22 -8.5 -36.5t-43.5 -23.5q-72 -19 -107 -19t-47.5 18.5t-12.5 47.5l-4 486l-4 274q0 37 15 56.5t49 30.5q75 25 131 25q22 0 35 -15t13 -60q0 -36 -2.5 -116.5t-1.5 -122.5
q19 14 55 22.5t75 8.5q42 0 83 -14t73 -40t51 -63t19 -80zM385 204q0 60 -18.5 91.5t-52.5 31.5q-18 0 -35 -7q0 -2 -3 -110t-5 -155q23 1 50 11t45.5 43.5t18.5 94.5z" />
    <glyph glyph-name="ydieresis" unicode="&#xff;" horiz-adv-x="626" 
d="M591 329q0 -77 -7 -264q-5 -137 -73 -201t-215 -64q-50 0 -72 13q-11 6 -14.5 16t-3.5 27q0 15 10.5 23t23.5 8q41 0 69.5 11t42.5 46t14 94q-28 -21 -66 -34.5t-110 -13.5q-68 0 -104 37.5t-41 127.5q0 3 -3.5 61.5t-5 93.5t-1.5 53q0 46 45 54q81 14 121 14
q36 0 50 -14t14 -56q0 -21 -2.5 -96.5t-1.5 -99.5q3 -65 60 -65q19 0 45 15q1 31 -1 126t-2 112q0 25 7.5 40.5t44.5 24.5q56 14 115 14q30 0 42 -10t15.5 -30.5t3.5 -62.5zM538 582q0 -14 -10 -29.5t-33 -25t-46 -9.5q-38 0 -57.5 15t-19.5 40q0 14 10.5 29.5t33.5 25.5
t44 10q35 0 56.5 -16t21.5 -40zM266 582q0 -14 -10 -29.5t-33 -25t-46 -9.5q-38 0 -57.5 15t-19.5 40q0 14 10.5 29.5t33.5 25.5t44 10q35 0 56.5 -16t21.5 -40z" />
    <glyph glyph-name="dotlessi" unicode="&#x131;" horiz-adv-x="311" 
d="M276 365q0 -9 -3 -123.5t-4 -174.5q0 -30 -12 -42.5t-40 -17.5q-76 -13 -117 -13q-35 0 -47.5 19t-12.5 48q0 59 -2.5 159t-2.5 114q0 38 14.5 56t49.5 24q85 16 134 16q20 0 31.5 -11.5t11.5 -53.5z" />
    <glyph glyph-name="Lslash" unicode="&#x141;" horiz-adv-x="598" 
d="M590 75q0 -35 -12.5 -51.5t-41.5 -18.5q-63 -5 -201 -10t-206 -5q-29 0 -38 14t-9 39l-2 226q-28 -7 -46 -7q-22 0 -22 34q0 21 6.5 31t27.5 16l34 9l-3 241q0 29 15.5 49.5t37.5 22.5q11 1 62 6.5t76.5 7.5t37.5 2q31 0 45.5 -12t14.5 -47l-7 -198l36 10q36 10 60 10
q12 0 20.5 -6t8.5 -35q0 -18 -10 -25t-42 -16l-75 -20l-7 -244q34 1 74 5.5t84.5 12t48.5 7.5q20 0 26.5 -12.5t6.5 -35.5z" />
    <glyph glyph-name="lslash" unicode="&#x142;" horiz-adv-x="415" 
d="M403 406q0 -15 -8 -25.5t-47 -20.5l-26 -7l-5 -280q0 -22 -8.5 -37t-43.5 -23q-84 -19 -115 -19q-35 0 -47.5 19t-12.5 48l-2 228q-40 -9 -52 -9q-24 0 -24 36q0 23 7 33.5t29 16.5l39 10l-4 222q0 37 15 56.5t49 30.5q75 25 131 25q22 0 35 -15t13 -60l-2 -196
q37 11 48 11q17 0 24 -9.5t7 -34.5z" />
    <glyph glyph-name="OE" unicode="&#x152;" horiz-adv-x="990" 
d="M978 67q0 -30 -11 -44t-40 -18t-145 -7.5t-269 -3.5q-32 0 -44 16q-57 -19 -115 -19q-72 0 -132.5 21t-105 63t-68.5 106.5t-24 146.5q0 77 28 142.5t79 111.5t121 71t150 25q46 0 92 -11l436 11q16 1 24 -12.5t8 -40.5q0 -26 -9 -41t-26 -15l-194 2l-2 -144
q54 0 120.5 7t72.5 7q30 0 30 -55t-37 -58q-144 -6 -187 -6l-6 -219q63 0 142 8.5t80 8.5q32 0 32 -53zM456 184l-11 349q-19 44 -60 44q-16 0 -33.5 -9.5t-30.5 -33.5t-20 -55q-11 -52 -11 -139q0 -127 19 -185.5t64 -59.5q59 -1 83 89z" />
    <glyph glyph-name="oe" unicode="&#x153;" horiz-adv-x="952" 
d="M940 299q0 -21 -11 -45t-40.5 -47t-83.5 -42.5t-137 -28.5q6 -26 27.5 -39.5t53.5 -13.5q33 0 74.5 11.5t50.5 11.5q10 0 17.5 -5.5t7.5 -30.5q0 -15 -6.5 -28t-18.5 -19q-26 -14 -84 -22.5t-126 -8.5q-32 0 -72 6t-78 25q-83 -34 -184 -34q-64 0 -118.5 12.5t-95 38
t-63 65t-22.5 90.5q0 73 39 124.5t112.5 81t177.5 29.5q123 0 194 -37q43 19 94 27.5t96 8.5q97 0 146.5 -33t49.5 -97zM789 305q0 24 -12.5 38.5t-33.5 14.5q-43 0 -61.5 -32t-22.5 -87l-1 -25q42 5 73.5 18.5t44.5 32.5t13 40zM417 211q0 73 -14.5 109.5t-52.5 36.5
q-32 0 -50 -40t-18 -112q0 -76 13 -110t51 -34q20 0 36.5 19t25.5 51.5t9 79.5z" />
    <glyph glyph-name="Scaron" unicode="&#x160;" horiz-adv-x="549" 
d="M535 197q0 -36 -17 -72.5t-58 -66t-109.5 -48.5t-165.5 -19q-87 0 -129 9q-20 5 -31 19.5t-11 44.5q0 44 33 46q4 0 33.5 -4.5t45.5 -4.5q101 0 101 70q0 22 -11.5 38t-26 28.5t-37 28t-28.5 19.5q-97 68 -97 166q0 30 11 64.5t39 65t72.5 54.5t105 37.5t117.5 13.5
q24 0 56.5 -3.5t48.5 -8.5q18 -6 30 -17t12 -35q0 -32 -7.5 -45t-27.5 -14l-68 4q-93 0 -93 -69q0 -20 15 -41.5t71 -63.5q48 -35 64 -51t29 -34t23 -45t10 -66zM475 839q0 -9 -15 -21l-60 -50q-17 -14 -41 -30.5t-28 -18.5q-6 -3 -37 -3q-32 0 -38 3q-10 5 -68 49
q-16 12 -39.5 32t-27.5 24q-3 3 -6 9.5t-3 9.5q0 9 10 24q15 20 22 20t32 -12q89 -48 117 -57q27 8 121 58q22 11 28 11q3 0 10.5 -6t11.5 -12q11 -16 11 -30z" />
    <glyph glyph-name="scaron" unicode="&#x161;" horiz-adv-x="488" 
d="M472 128q0 -40 -28.5 -69.5t-83.5 -48t-134 -18.5q-52 0 -106.5 4.5t-73.5 11.5q-30 11 -30 32t9.5 31.5t23.5 10.5l58 -6q33 0 49.5 8.5t16.5 30.5q0 8 -5 16.5t-15 17t-27.5 19.5t-20.5 13q-37 24 -54.5 47t-17.5 55q0 42 29 73.5t85.5 51t138.5 19.5q46 0 87 -3t58 -8
q14 -4 23 -11t9 -28q0 -15 -9.5 -25.5t-23.5 -10.5l-39 3q-34 0 -54.5 -9t-20.5 -33q0 -8 8.5 -18.5t71.5 -45.5q76 -42 76 -110zM459 627q0 -9 -15 -21l-60 -50q-17 -14 -41 -30.5t-28 -18.5q-6 -3 -37 -3q-32 0 -38 3q-10 5 -68 49q-16 12 -39.5 32t-27.5 24q-3 3 -6 9.5
t-3 9.5q0 9 10 24q15 20 22 20t32 -12q89 -48 117 -57q27 8 121 58q22 11 28 11q3 0 10.5 -6t11.5 -12q11 -16 11 -30z" />
    <glyph glyph-name="Ydieresis" unicode="&#x178;" horiz-adv-x="700" 
d="M690 644q0 -36 -72 -177q-12 -23 -32 -56t-55.5 -83.5t-39.5 -56.5l-7 -213q-2 -56 -50 -62q-35 -4 -88 -8t-79 -4q-49 0 -49 58l-1 229q-110 139 -186 295q-9 17 -15 36.5t-6 29.5q0 12 9.5 21t39.5 13q40 5 102 9.5t94 4.5q23 0 40 -7.5t25 -34.5q41 -144 101 -247
q35 50 68 112.5t53 124.5q9 26 17.5 42t26.5 16q11 0 41.5 -6t40.5 -10q11 -4 16.5 -9.5t5.5 -16.5zM562 793q0 -14 -10 -29.5t-33 -25t-46 -9.5q-38 0 -57.5 15t-19.5 40q0 14 10.5 29.5t33.5 25.5t44 10q35 0 56.5 -16t21.5 -40zM290 793q0 -14 -10 -29.5t-33 -25
t-46 -9.5q-38 0 -57.5 15t-19.5 40q0 14 10.5 29.5t33.5 25.5t44 10q35 0 56.5 -16t21.5 -40z" />
    <glyph glyph-name="Zcaron" unicode="&#x17d;" horiz-adv-x="637" 
d="M625 73q0 -31 -9 -48.5t-22 -18.5q-80 -4 -266.5 -9t-239.5 -5q-39 0 -57.5 15t-18.5 36q0 9 4 22t26 58l222 437l-198 -6q-37 0 -37 54q0 58 42 58q17 0 222.5 7t241.5 7q65 0 65 -47q0 -23 -24 -69l-238 -457q30 0 128.5 8.5t118.5 8.5t30 -12t10 -39zM500 839
q0 -9 -15 -21l-60 -50q-17 -14 -41 -30.5t-28 -18.5q-6 -3 -37 -3q-32 0 -38 3q-10 5 -68 49q-16 12 -39.5 32t-27.5 24q-3 3 -6 9.5t-3 9.5q0 9 10 24q15 20 22 20t32 -12q89 -48 117 -57q27 8 121 58q22 11 28 11q3 0 10.5 -6t11.5 -12q11 -16 11 -30z" />
    <glyph glyph-name="zcaron" unicode="&#x17e;" horiz-adv-x="532" 
d="M511 73q0 -71 -41 -72q-52 -2 -181.5 -4t-217.5 -2q-28 0 -42 10t-14 33q0 10 5 27t29 53q8 11 63 90t72 107q-16 0 -63.5 -3.5t-64.5 -3.5q-29 0 -29 55q0 54 33 54q53 0 205.5 4.5t160.5 4.5q23 0 38.5 -10.5t15.5 -33.5q0 -14 -7 -29.5t-33 -52.5l-138 -199q30 0 94 8
t87 8q11 0 19.5 -6.5t8.5 -37.5zM455 627q0 -9 -15 -21l-60 -50q-17 -14 -41 -30.5t-28 -18.5q-6 -3 -37 -3q-32 0 -38 3q-10 5 -68 49q-16 12 -39.5 32t-27.5 24q-3 3 -6 9.5t-3 9.5q0 9 10 24q15 20 22 20t32 -12q89 -48 117 -57q27 8 121 58q22 11 28 11q3 0 10.5 -6
t11.5 -12q11 -16 11 -30z" />
    <glyph glyph-name="florin" unicode="&#x192;" horiz-adv-x="565" 
d="M535 655q0 -16 -10.5 -25.5t-25.5 -9.5l-26 1q-26 0 -43.5 -24t-26.5 -84l-12 -100l72 5q16 0 25 -6.5t9 -37.5q0 -37 -45 -40l-70 -6q-22 -168 -32 -263q-27 -251 -289 -251q-40 0 -65 9q-26 9 -26 42q0 16 12 25.5t27 9.5l26 -1q26 0 45.5 27t25.5 86q19 176 28 302
l-25 -1q-14 0 -24.5 6t-10.5 29q0 18 8.5 31.5t36.5 14.5l22 2l6 59q6 57 27 103.5t58 79t91 50.5t124 18q40 0 65 -9q23 -8 23 -42z" />
    <glyph glyph-name="circumflex" unicode="&#x2c6;" horiz-adv-x="638" 
d="M500 548q0 -9 -10 -24q-15 -20 -22 -20t-32 12q-89 48 -117 57q-27 -8 -121 -58q-22 -11 -28 -11q-3 0 -10.5 6t-11.5 12q-11 17 -11 30q0 9 15 21l60 50q17 14 41 30.5t28 18.5q6 3 37 3q32 0 38 -3q10 -5 68 -49q16 -12 39.5 -32t27.5 -24q3 -3 6 -9.5t3 -9.5z" />
    <glyph glyph-name="caron" unicode="&#x2c7;" horiz-adv-x="638" 
d="M500 627q0 -9 -15 -21l-60 -50q-17 -14 -41 -30.5t-28 -18.5q-6 -3 -37 -3q-32 0 -38 3q-10 5 -68 49q-16 12 -39.5 32t-27.5 24q-3 3 -6 9.5t-3 9.5q0 9 10 24q15 20 22 20t32 -12q89 -48 117 -57q27 8 121 58q22 11 28 11q3 0 10.5 -6t11.5 -12q11 -16 11 -30z" />
    <glyph glyph-name="breve" unicode="&#x2d8;" horiz-adv-x="638" 
d="M494 628q0 -65 -44 -105t-131 -40t-131 39.5t-44 104.5q0 6 7.5 10.5t19.5 4.5q32 0 32 -12q0 -10 11 -23t40 -23.5t65 -10.5q21 0 48.5 6t48 20.5t20.5 28.5q0 6 8 10t20 4q13 0 21.5 -2.5t8.5 -11.5z" />
    <glyph glyph-name="dotaccent" unicode="&#x2d9;" horiz-adv-x="638" 
d="M402 582q0 -14 -10 -29.5t-33 -25t-46 -9.5q-38 0 -57.5 15t-19.5 40q0 14 10.5 29.5t33.5 25.5t44 10q35 0 56.5 -16t21.5 -40z" />
    <glyph glyph-name="ring" unicode="&#x2da;" horiz-adv-x="638" 
d="M431 578q0 -22 -11.5 -47.5t-40 -43t-61.5 -17.5q-22 0 -48.5 10.5t-45 37t-18.5 58.5q0 21 11 46.5t39 44t63 18.5q23 0 49.5 -11t44.5 -38t18 -58zM368 578q0 20 -13 36t-37 16q-22 0 -35.5 -16.5t-13.5 -37.5q0 -22 14.5 -36.5t35.5 -14.5t35 15.5t14 37.5z" />
    <glyph glyph-name="ogonek" unicode="&#x2db;" horiz-adv-x="638" 
d="M446 -154q0 -17 -7 -23q-17 -15 -56 -25.5t-84 -10.5q-51 0 -78.5 24.5t-27.5 65.5q0 32 19.5 60t94.5 70h70q-43 -40 -52 -51t-13.5 -23.5t-4.5 -27.5q0 -20 14 -31t32 -11q20 0 46 6.5t27 6.5q20 0 20 -30z" />
    <glyph glyph-name="tilde" unicode="&#x2dc;" horiz-adv-x="638" 
d="M496 600q0 -4 -16 -24.5t-45 -43t-60 -22.5q-13 0 -31 3t-49 20q-18 10 -31 15t-29 5q-8 0 -15.5 -6t-16 -19t-11.5 -13q-6 0 -15 4.5t-16 11.5q-18 18 -18 27q0 7 20 34t45 42.5t48 15.5q48 0 84 -21q2 -1 22 -14t35 -13q9 0 18 6.5t19.5 21.5t13.5 15q12 0 30 -17
l11 -11t7 -17z" />
    <glyph glyph-name="hungarumlaut" unicode="&#x2dd;" horiz-adv-x="638" 
d="M583 591q0 -18 -23 -28q-10 -5 -88 -28q-107 -31 -118 -31q-10 0 -19 15q-6 12 -6 23q0 17 10 24q6 5 96 55q12 7 55 30.5t54 23.5q10 0 18.5 -15t12.5 -29q8 -24 8 -40zM309 591q0 -18 -23 -28q-10 -5 -88 -28q-107 -31 -118 -31q-10 0 -19 15q-6 12 -6 23q0 17 10 24
q6 5 96 55q12 7 55 30.5t54 23.5q10 0 18.5 -15t12.5 -29q8 -24 8 -40z" />
    <glyph glyph-name="pi" unicode="&#x3c0;" 
d="M530 272q0 -51 -36 -92.5t-94.5 -61.5t-110.5 -20q-39 0 -77 7.5t-70.5 28t-47 52t-14.5 63.5q0 30 15.5 61t49 56t80.5 41t94 16q95 0 153 -43t58 -108z" />
    <glyph glyph-name="endash" unicode="&#x2013;" horiz-adv-x="568" 
d="M508 253q0 -52 -41 -54l-369 -14q-38 -1 -38 49q0 32 9.5 46t30.5 15l369 15q21 1 30 -12t9 -45z" />
    <glyph glyph-name="emdash" unicode="&#x2014;" horiz-adv-x="958" 
d="M898 267q0 -24 -10.5 -38.5t-30.5 -15.5l-759 -28q-38 -1 -38 49q0 60 40 61l759 31q15 1 27 -12t12 -47z" />
    <glyph glyph-name="quoteleft" unicode="&#x2018;" horiz-adv-x="297" 
d="M247 399q0 -2 -4 -7.5t-30 -16.5q-15 -6 -34 -10.5t-29 -4.5q-6 0 -11.5 5.5t-16.5 38.5q-12 37 -36 119q-31 109 -33.5 122t-2.5 21q0 5 4.5 11t39.5 18q13 5 32.5 9.5t25.5 4.5q5 0 11.5 -7.5t16.5 -38.5q14 -41 31 -105q27 -101 33 -131z" />
    <glyph glyph-name="quoteright" unicode="&#x2019;" horiz-adv-x="297" 
d="M247 666q0 -8 -3.5 -25t-16 -60.5t-16.5 -57.5q-24 -82 -36 -119q-7 -21 -12.5 -32.5t-15.5 -11.5t-29 4.5t-34 10.5q-17 7 -25.5 12.5t-8.5 11.5l3 28q6 30 33 131q17 64 31 105q6 19 12.5 32.5t15.5 13.5q6 0 25.5 -4.5t32.5 -9.5q31 -11 37.5 -16.5t6.5 -12.5z" />
    <glyph glyph-name="quotesinglbase" unicode="&#x201a;" horiz-adv-x="297" 
d="M247 105q0 -8 -3.5 -25t-16 -60.5t-16.5 -57.5q-24 -82 -36 -119q-7 -21 -12.5 -32.5t-15.5 -11.5t-29 4.5t-34 10.5q-17 7 -25.5 12.5t-8.5 11.5l3 28q6 30 33 131q17 64 31 105q6 19 12.5 32.5t15.5 13.5q6 0 25.5 -4.5t32.5 -9.5q31 -11 37.5 -16.5t6.5 -12.5z" />
    <glyph glyph-name="quotedblleft" unicode="&#x201c;" horiz-adv-x="479" 
d="M429 399q0 -2 -4 -7.5t-30 -16.5q-15 -6 -34 -10.5t-29 -4.5q-6 0 -11.5 5.5t-16.5 38.5q-12 37 -36 119q-31 109 -33.5 122t-2.5 21q0 5 4.5 11t39.5 18q13 5 32.5 9.5t25.5 4.5q5 0 11.5 -7.5t16.5 -38.5q14 -41 31 -105q27 -101 33 -131zM236 426q0 -7 -13 -14.5
t-29 -11.5q-37 -11 -51 -11q-4 0 -9 6.5t-9 16.5q-24 62 -42 123q-23 76 -29 104q-4 17 -4 30q0 9 10 16t25 11q47 11 53 11q11 0 22 -25q13 -33 38 -112q27 -85 33 -114q5 -22 5 -30z" />
    <glyph glyph-name="quotedblright" unicode="&#x201d;" horiz-adv-x="479" 
d="M429 669q0 -13 -4 -30q-6 -28 -29 -104q-18 -61 -42 -123q-4 -10 -9 -16.5t-9 -6.5q-14 0 -51 11q-16 4 -29 11.5t-13 14.5q0 8 5 30q6 29 33 114q25 79 38 112q11 25 22 25q6 0 53 -11q15 -4 25 -11t10 -16zM247 666q0 -8 -3.5 -25t-16 -60.5t-16.5 -57.5
q-24 -82 -36 -119q-7 -21 -12.5 -32.5t-15.5 -11.5t-29 4.5t-34 10.5q-17 7 -25.5 12.5t-8.5 11.5l3 28q6 30 33 131q17 64 31 105q6 19 12.5 32.5t15.5 13.5q6 0 25.5 -4.5t32.5 -9.5q31 -11 37.5 -16.5t6.5 -12.5z" />
    <glyph glyph-name="quotedblbase" unicode="&#x201e;" horiz-adv-x="479" 
d="M429 108q0 -13 -4 -30q-6 -28 -29 -104q-18 -61 -42 -123q-4 -10 -9 -16.5t-9 -6.5q-14 0 -51 11q-16 4 -29 11.5t-13 14.5q0 8 5 30q6 29 33 114q25 79 38 112q11 25 22 25q6 0 53 -11q15 -4 25 -11t10 -16zM247 105q0 -8 -3.5 -25t-16 -60.5t-16.5 -57.5
q-24 -82 -36 -119q-7 -21 -12.5 -32.5t-15.5 -11.5t-29 4.5t-34 10.5q-17 7 -25.5 12.5t-8.5 11.5l3 28q6 30 33 131q17 64 31 105q6 19 12.5 32.5t15.5 13.5q6 0 25.5 -4.5t32.5 -9.5q31 -11 37.5 -16.5t6.5 -12.5z" />
    <glyph glyph-name="dagger" unicode="&#x2020;" horiz-adv-x="638" 
d="M564 476q0 -15 -7.5 -26.5t-33.5 -13.5l-117 -9q-23 -386 -23 -514q0 -27 -9.5 -38t-33.5 -20q-25 -9 -46 -9q-22 0 -35 13.5t-13 49.5q0 96 -15 506l-119 -9q-38 0 -38 35q0 18 6.5 30.5t33.5 13.5l114 8l-4 98q0 36 12 52.5t40 23.5q36 8 54.5 11.5t39.5 3.5
q24 0 35 -20.5t11 -51.5l-5 -102l114 10q16 0 27.5 -6.5t11.5 -35.5z" />
    <glyph glyph-name="daggerdbl" unicode="&#x2021;" horiz-adv-x="638" 
d="M564 323q0 -15 -7.5 -26.5t-33.5 -13.5l-126 -10q-14 -270 -14 -359q0 -27 -9.5 -38t-33.5 -20q-25 -9 -46 -9q-22 0 -35 13.5t-13 49.5q0 114 -9 352l-125 -9q-38 0 -38 35q0 18 6.5 30.5t33.5 13.5l120 9l-3 74l-119 -9q-38 0 -38 35q0 18 6.5 30.5t33.5 13.5l114 8
l-4 98q0 36 12 52.5t40 23.5q36 8 54.5 11.5t39.5 3.5q24 0 35 -20.5t11 -51.5l-5 -102l114 10q16 0 27.5 -6.5t11.5 -35.5q0 -15 -7.5 -26.5t-33.5 -13.5l-117 -9l-4 -73l123 11q16 0 27.5 -6.5t11.5 -35.5z" />
    <glyph glyph-name="bullet" unicode="&#x2022;" 
d="M530 272q0 -51 -36 -92.5t-94.5 -61.5t-110.5 -20q-39 0 -77 7.5t-70.5 28t-47 52t-14.5 63.5q0 30 15.5 61t49 56t80.5 41t94 16q95 0 153 -43t58 -108z" />
    <glyph glyph-name="ellipsis" unicode="&#x2026;" horiz-adv-x="996" 
d="M946 84q0 -28 -18 -49t-50 -34.5t-66 -13.5q-57 0 -86.5 23.5t-29.5 60.5q0 43 44 70t89 27q25 0 52.5 -8t46 -29t18.5 -47zM623 84q0 -28 -18 -49t-50 -34.5t-66 -13.5q-57 0 -86.5 23.5t-29.5 60.5q0 43 44 70t89 27q25 0 52.5 -8t46 -29t18.5 -47zM300 84
q0 -28 -18 -49t-50 -34.5t-66 -13.5q-57 0 -86.5 23.5t-29.5 60.5q0 43 44 70t89 27q25 0 52.5 -8t46 -29t18.5 -47z" />
    <glyph glyph-name="perthousand" unicode="&#x2030;" horiz-adv-x="1787" 
d="M1737 168q0 -53 -34.5 -91.5t-99 -61t-150.5 -22.5q-81 0 -137.5 19t-86.5 52.5t-30 81.5q0 44 22.5 77.5t61.5 55.5t89.5 32.5t105.5 10.5q81 0 138 -17.5t89 -51.5t32 -85zM1156 168q0 -53 -34.5 -91.5t-99 -61t-150.5 -22.5q-81 0 -137.5 19t-86.5 52.5t-30 81.5
q0 44 22.5 77.5t61.5 55.5t89.5 32.5t105.5 10.5q81 0 138 -17.5t89 -51.5t32 -85zM925 631q0 -10 -17 -29l-271 -301l-270 -325q-15 -15 -27 -15q-5 0 -18.5 7.5t-30.5 20.5q-8 7 -13 16t-5 15q0 14 16 32l286 332l254 296q13 13 27 13q4 0 16.5 -6t35.5 -24q17 -13 17 -32
zM587 533q0 -53 -34.5 -91.5t-98.5 -61t-150 -22.5q-81 0 -137.5 19t-86.5 52.5t-30 81.5q0 44 22.5 77.5t61.5 55.5t89.5 32.5t105.5 10.5q81 0 138 -17.5t88.5 -51.5t31.5 -85zM1526 158q0 109 -57 109q-25 0 -42 -30.5t-17 -82.5q0 -49 12 -78.5t44 -29.5q16 0 31 15.5
t22 42.5t7 54zM945 158q0 109 -57 109q-25 0 -42 -30.5t-17 -82.5q0 -49 12 -78.5t44 -29.5q16 0 31 15.5t22 42.5t7 54zM377 523q0 109 -57 109q-25 0 -42 -30.5t-17 -82.5q0 -49 12 -78.5t44 -29.5q16 0 31 15.5t22 42.5t7 54z" />
    <glyph glyph-name="guilsinglleft" unicode="&#x2039;" horiz-adv-x="373" 
d="M318 51q0 -3 -2.5 -9.5t-11.5 -12.5q-16 -13 -25 -13q-16 0 -40 20q-70 57 -171 160q-13 13 -13 24q0 10 12 24q36 39 88 87.5t93 80.5q16 13 29 13q12 0 23 -10q18 -15 18 -23q0 -5 -14 -30q-23 -40 -45 -83.5t-28 -58.5q7 -18 31.5 -65.5t45.5 -83.5q10 -17 10 -20z
" />
    <glyph glyph-name="guilsinglright" unicode="&#x203a;" horiz-adv-x="373" 
d="M318 220q0 -11 -13 -24q-101 -103 -171 -160q-24 -20 -40 -20q-9 0 -25 13q-5 3 -9.5 9.5t-4.5 12.5q0 3 10 20q21 36 45.5 83.5t31.5 65.5q-6 15 -28 58.5t-45 83.5q-14 25 -14 30q0 8 18 23q11 10 23 10q13 0 29 -13q29 -23 79 -68t102 -100q12 -14 12 -24z" />
    <glyph glyph-name="fraction" unicode="&#x2044;" horiz-adv-x="382" 
d="M402 700q0 -7 -7 -26l-148 -379l-142 -379q-2 -9 -9.5 -16t-17.5 -7q-8 0 -34 8t-34 11q-30 11 -30 29q0 11 7 27l149 387l141 376q8 21 22 21q1 0 9.5 -2t36.5 -11.5t30 -10.5q11 -3 19 -10.5t8 -17.5z" />
    <glyph glyph-name="Euro" unicode="&#x20ac;" horiz-adv-x="727" 
d="M677 82q0 -37 -23 -49q-18 -9 -49 -18.5t-75 -15t-87 -5.5q-252 0 -311 223l-44 -1q-38 0 -38 36q0 17 7 28.5t33 12.5l31 1l-1 23q0 28 3 52l-35 -1q-38 0 -38 36q0 17 7 28.5t33 12.5l51 1q43 118 142 175t238 57q78 0 115 -15q12 -5 20 -14.5t8 -34.5q0 -23 -13 -39
t-30 -16q-7 0 -28.5 5t-45.5 5q-40 0 -73 -17t-52 -45t-28 -54l189 4q22 1 30.5 -8t8.5 -38q0 -15 -7 -24.5t-34 -9.5l-203 -4l-1 -34l1 -39l205 5q22 1 30.5 -8t8.5 -38q0 -15 -7 -24t-34 -10l-189 -4q34 -111 147 -111q21 0 55.5 11t41.5 11q41 0 41 -50z" />
    <glyph glyph-name="trademark" unicode="&#x2122;" horiz-adv-x="682" 
d="M610 698l-7 -197q0 -14 -14 -16q-24 -3 -74 -3q-5 0 -8.5 4t-3.5 9l-2 107l-44 -77q-9 -14 -17 -14h-3q-10 0 -19 14l-53 76q1 -35 5 -68t4 -37q0 -2 -2 -7t-9 -6l-30 -3q-13 0 -14 16l-1 112l-1 86q0 12 5 16.5t16 6.5q17 3 47 3q4 0 12 -1.5t16 -14.5l50 -82l43 79
q2 4 7.5 9.5t20.5 6.5l57 3q4 0 11.5 -2t7.5 -20zM289 700q0 -6 -2 -12.5t-13 -7.5l-51 -3l-6 -171q0 -9 -5 -15t-14 -7q-50 -5 -64 -5q-18 0 -18 21l-2 175l-51 -2q-15 0 -15 20q0 6 2 12.5t14 6.5l101 3l110 4q3 0 8.5 -2t5.5 -17z" />
    <glyph glyph-name="uni2126" unicode="&#x2126;" 
d="M530 272q0 -51 -36 -92.5t-94.5 -61.5t-110.5 -20q-39 0 -77 7.5t-70.5 28t-47 52t-14.5 63.5q0 30 15.5 61t49 56t80.5 41t94 16q95 0 153 -43t58 -108z" />
    <glyph glyph-name="partialdiff" unicode="&#x2202;" 
d="M530 272q0 -51 -36 -92.5t-94.5 -61.5t-110.5 -20q-39 0 -77 7.5t-70.5 28t-47 52t-14.5 63.5q0 30 15.5 61t49 56t80.5 41t94 16q95 0 153 -43t58 -108z" />
    <glyph glyph-name="uni2206" unicode="&#x2206;" 
d="M530 272q0 -51 -36 -92.5t-94.5 -61.5t-110.5 -20q-39 0 -77 7.5t-70.5 28t-47 52t-14.5 63.5q0 30 15.5 61t49 56t80.5 41t94 16q95 0 153 -43t58 -108z" />
    <glyph glyph-name="product" unicode="&#x220f;" 
d="M530 272q0 -51 -36 -92.5t-94.5 -61.5t-110.5 -20q-39 0 -77 7.5t-70.5 28t-47 52t-14.5 63.5q0 30 15.5 61t49 56t80.5 41t94 16q95 0 153 -43t58 -108z" />
    <glyph glyph-name="summation" unicode="&#x2211;" 
d="M530 272q0 -51 -36 -92.5t-94.5 -61.5t-110.5 -20q-39 0 -77 7.5t-70.5 28t-47 52t-14.5 63.5q0 30 15.5 61t49 56t80.5 41t94 16q95 0 153 -43t58 -108z" />
    <glyph glyph-name="minus" unicode="&#x2212;" horiz-adv-x="596" 
d="M536 279q0 -22 -11 -37.5t-30 -16.5l-218 -10l-179 -9q-18 0 -28 15t-10 34q0 27 10 43.5t30 17.5l177 9q28 2 119 7.5t101 5.5q15 0 27 -12.5t12 -46.5z" />
    <glyph glyph-name="radical" unicode="&#x221a;" 
d="M530 272q0 -51 -36 -92.5t-94.5 -61.5t-110.5 -20q-39 0 -77 7.5t-70.5 28t-47 52t-14.5 63.5q0 30 15.5 61t49 56t80.5 41t94 16q95 0 153 -43t58 -108z" />
    <glyph glyph-name="infinity" unicode="&#x221e;" 
d="M530 272q0 -51 -36 -92.5t-94.5 -61.5t-110.5 -20q-39 0 -77 7.5t-70.5 28t-47 52t-14.5 63.5q0 30 15.5 61t49 56t80.5 41t94 16q95 0 153 -43t58 -108z" />
    <glyph glyph-name="integral" unicode="&#x222b;" 
d="M530 272q0 -51 -36 -92.5t-94.5 -61.5t-110.5 -20q-39 0 -77 7.5t-70.5 28t-47 52t-14.5 63.5q0 30 15.5 61t49 56t80.5 41t94 16q95 0 153 -43t58 -108z" />
    <glyph glyph-name="approxequal" unicode="&#x2248;" 
d="M530 272q0 -51 -36 -92.5t-94.5 -61.5t-110.5 -20q-39 0 -77 7.5t-70.5 28t-47 52t-14.5 63.5q0 30 15.5 61t49 56t80.5 41t94 16q95 0 153 -43t58 -108z" />
    <glyph glyph-name="notequal" unicode="&#x2260;" 
d="M530 272q0 -51 -36 -92.5t-94.5 -61.5t-110.5 -20q-39 0 -77 7.5t-70.5 28t-47 52t-14.5 63.5q0 30 15.5 61t49 56t80.5 41t94 16q95 0 153 -43t58 -108z" />
    <glyph glyph-name="lessequal" unicode="&#x2264;" 
d="M530 272q0 -51 -36 -92.5t-94.5 -61.5t-110.5 -20q-39 0 -77 7.5t-70.5 28t-47 52t-14.5 63.5q0 30 15.5 61t49 56t80.5 41t94 16q95 0 153 -43t58 -108z" />
    <glyph glyph-name="greaterequal" unicode="&#x2265;" 
d="M530 272q0 -51 -36 -92.5t-94.5 -61.5t-110.5 -20q-39 0 -77 7.5t-70.5 28t-47 52t-14.5 63.5q0 30 15.5 61t49 56t80.5 41t94 16q95 0 153 -43t58 -108z" />
    <glyph glyph-name="lozenge" unicode="&#x25ca;" 
d="M530 272q0 -51 -36 -92.5t-94.5 -61.5t-110.5 -20q-39 0 -77 7.5t-70.5 28t-47 52t-14.5 63.5q0 30 15.5 61t49 56t80.5 41t94 16q95 0 153 -43t58 -108z" />
    <glyph glyph-name="uniF8FF" unicode="&#xf8ff;" horiz-adv-x="711" 
 />
    <glyph glyph-name="uniFB01" unicode="&#xfb01;" horiz-adv-x="680" 
d="M645 365l-4 -298q0 -30 -12 -42.5t-40 -17.5q-76 -13 -117 -13q-35 0 -47.5 19t-12.5 48q0 155 -4 276l-89 -3q-5 -187 -5 -269q0 -30 -12 -42.5t-40 -17.5q-75 -13 -90.5 -14.5t-24.5 -1.5q-35 0 -47.5 19t-12.5 48l-3 264l-36 -1q-20 0 -29 8t-9 25q0 18 6.5 29
t33.5 12l33 2v64q0 251 293 251q23 0 56 -6t45 -12q5 -2 14 -8t9 -31q0 -17 -9 -26t-23 -9l-47 7q-32 0 -53 -11.5t-32.5 -35t-13.5 -61.5l-2 -104q21 2 156 4q76 13 126 13q20 0 31.5 -11.5t11.5 -53.5z" />
    <glyph glyph-name="uniFB02" unicode="&#xfb02;" horiz-adv-x="724" 
d="M689 635l-9 -562q0 -30 -12 -42.5t-40 -17.5q-12 -2 -53.5 -10.5t-63.5 -8.5q-35 0 -47.5 19t-12.5 48q0 118 -3 313.5t-3 213.5q0 17 3 29l-13 2q-61 0 -87 -24t-26 -78l-1 -104q38 3 60 3t30.5 -7.5t8.5 -31.5q0 -15 -7.5 -26t-33.5 -13l-59 -4q-3 -112 -3 -269
q0 -30 -12 -42.5t-40 -17.5q-11 -2 -53.5 -10.5t-64.5 -8.5q-35 0 -47.5 19t-12.5 48l-3 267l-36 -1q-20 0 -29 8t-9 25q0 18 6.5 29t33.5 12l33 2v64q0 88 35.5 142.5t99.5 81.5t161 27q82 0 141 -27q78 27 121 27q22 0 35 -15t13 -60z" />
    <glyph glyph-name="glyph244" horiz-adv-x="711" 
d="M528 335h-98v128q15 -4 36.5 -20t40 -47t21.5 -61zM341 59v488q-14 0 -32.5 -3t-26.5 -7v-392q-48 24 -75 66.5t-27 94.5l3 29h-69l-3 -30q0 -24 6 -54.5t22.5 -61.5t44.5 -59.5t70 -48t87 -22.5zM169 390v-21h84v21h-32v76l-52 -12v-21l31 7v-50h-31zM457 177v-32h96v32
h-21v-11h-54v4l70 21l5 9v29l-10 9h-77l-9 -9v-25h21v13h54v-10l-67 -20zM601 302q0 47 -17 90.5t-48.5 77t-74.5 54.5t-92 25v-490q14 0 32.5 4t28.5 8v200h167zM627 304q0 -54 -21 -104t-58 -88t-87 -59t-104 -21t-104 21t-88 59t-59 88t-21 104t21 104t59 88t88 59
t104 21t104 -21t87 -59t58 -88t21 -104zM650 304q0 59 -23 113t-63 95t-94 64t-113 23t-113 -23t-95 -64t-64 -95t-23 -113t23 -113t64 -95t95 -64t113 -23t113 23t94 64t63 95t23 113zM661 304q0 -46 -13.5 -90t-42.5 -87t-78.5 -76.5t-95 -43t-74.5 -9.5q-61 0 -117.5 24
t-99 66t-66.5 98.5t-24 117.5q0 45 16 96.5t59.5 103.5t107 79t124.5 27q29 0 74.5 -9.5t95 -43t78.5 -76.5t42.5 -87t13.5 -90z" />
    </font>
</defs>
</svg>
